<svg xmlns="http://www.w3.org/2000/svg" width="67.854" height="66.982"><path data-name="Path 248" d="M58.084 31.878a5.222 5.222 0 1 0-.6-3.428l-14.385 2.534a9.474 9.474 0 0 0-1.479-3.08l9.207-10.972a5.222 5.222 0 1 0-2.663-2.237l-9.072 10.81a9.446 9.446 0 0 0-3.425-1.365V10.146a5.222 5.222 0 1 0-3.481 0V24.14a9.448 9.448 0 0 0-3.425 1.365l-9.071-10.81a5.222 5.222 0 1 0-2.667 2.238l9.207 10.972a9.47 9.47 0 0 0-1.479 3.08l-14.377-2.536a5.221 5.221 0 1 0-.6 3.428l14.695 2.591a9.446 9.446 0 0 0 .779 2.9l-13.164 7.6a5.221 5.221 0 1 0 1.741 3.014l13.411-7.743a9.555 9.555 0 0 0 2.127 1.59l-5.351 14.7a5.221 5.221 0 1 0 3.271 1.19l5.39-14.809a9.337 9.337 0 0 0 2.518 0l5.39 14.809a5.223 5.223 0 1 0 3.271-1.19l-5.353-14.694a9.56 9.56 0 0 0 2.127-1.59l13.41 7.743a5.222 5.222 0 1 0 1.741-3.014l-13.164-7.6a9.454 9.454 0 0 0 .779-2.9z" fill="#24873d"/></svg>