<svg xmlns="http://www.w3.org/2000/svg" width="67.854" height="66.982" viewBox="0 0 67.854 66.982">
  <g id="centralized-connections" transform="translate(-0.001 -2.505)">
    <path id="Path_248" data-name="Path 248" d="M58.085,34.383a5.222,5.222,0,1,0-.6-3.428L43.1,33.489a9.474,9.474,0,0,0-1.479-3.08l9.207-10.972A5.222,5.222,0,1,0,48.165,17.2L39.093,28.01a9.446,9.446,0,0,0-3.425-1.365V12.651a5.222,5.222,0,1,0-3.481,0V26.645a9.448,9.448,0,0,0-3.425,1.365L19.691,17.2a5.222,5.222,0,1,0-2.667,2.238l9.207,10.972a9.47,9.47,0,0,0-1.479,3.08L10.375,30.954a5.221,5.221,0,1,0-.6,3.428l14.695,2.591a9.446,9.446,0,0,0,.779,2.9l-13.164,7.6a5.221,5.221,0,1,0,1.741,3.014l13.411-7.743a9.555,9.555,0,0,0,2.127,1.59l-5.351,14.7a5.221,5.221,0,1,0,3.271,1.19l5.39-14.809a9.337,9.337,0,0,0,2.518,0l5.39,14.809a5.223,5.223,0,1,0,3.271-1.19L38.5,44.34a9.56,9.56,0,0,0,2.127-1.59l13.41,7.743a5.222,5.222,0,1,0,1.741-3.014l-13.164-7.6a9.454,9.454,0,0,0,.779-2.9Z" transform="translate(0)" fill="#24873d"/>
  </g>
</svg>
