<svg xmlns="http://www.w3.org/2000/svg" width="44.952" height="52.827"><g fill="#24873d"><path data-name="Path 216" d="M43.996 0h-2.869v6.7a.964.964 0 0 1-.679.918.93.93 0 0 1-.277.038.941.941 0 0 1-.794-.431l-1.119-1.674-1.119 1.674a.948.948 0 0 1-1.071.392.963.963 0 0 1-.679-.918V0H9.564a.956.956 0 0 0-.956.956v3.415a13.663 13.663 0 0 1 3.826-.545 14.347 14.347 0 1 1 0 28.693 13.663 13.663 0 0 1-3.826-.545v14.891a.956.956 0 0 0 .956.956h18.173v-2.888a9.564 9.564 0 1 1 11.477 0v2.888h4.782a.956.956 0 0 0 .956-.956V.956A.956.956 0 0 0 43.996 0zM12.434 38.257h1.913v1.913h-1.913zM18.17 44h-5.736v-1.917h5.736zm0-3.826h-1.911v-1.917h1.911zm22.954-19.129H29.649v-1.916h11.477zm0-3.826H29.649V15.3h11.477zm0-3.826H29.649v-1.916h11.477zm0 0"/><path data-name="Path 217" d="M29.65 46.061v6.766l3.333-2a.956.956 0 0 1 .985 0l3.333 2v-6.766a9.5 9.5 0 0 1-7.651 0zm0 0"/><path data-name="Path 218" d="M12.434 19.128a2.869 2.869 0 0 0 2.869-2.869v-1.235a2.825 2.825 0 0 1-1.326-1.2l-.524.349a6.676 6.676 0 0 1-3.714 1.125h-.175v.956a2.869 2.869 0 0 0 2.869 2.869zm0 0"/><path data-name="Path 219" d="M38.255 37.301a4.782 4.782 0 1 1-4.78-4.782 4.782 4.782 0 0 1 4.78 4.782zm0 0"/><path data-name="Path 220" d="M41.127 37.3a7.651 7.651 0 1 0-7.651 7.651 7.652 7.652 0 0 0 7.651-7.651zM33.476 44a6.7 6.7 0 1 1 6.7-6.7 6.695 6.695 0 0 1-6.701 6.695zm0 0"/><path data-name="Path 221" d="M20.085 27.953v-1.154a2.881 2.881 0 0 0-2.08-2.762l-2.081-.594-2.917 2.189a.955.955 0 0 1-1.147 0l-2.916-2.189-2.08.593a2.883 2.883 0 0 0-2.08 2.763v1.154a12.439 12.439 0 0 0 1.913 1.243V26.78H8.61v3.217a12.333 12.333 0 0 0 7.651 0V26.78h1.913v2.411a12.492 12.492 0 0 0 1.913-1.239zm0 0"/><path data-name="Path 222" d="M12.393 12.587l1.423-.949a.957.957 0 0 1 1.387.369l.425.853a.957.957 0 0 0 .631.5 3.826 3.826 0 1 0-7.651.026h1.131a4.77 4.77 0 0 0 2.654-.8zm0 0"/><path data-name="Path 223" d="M21.945 26.164a12.433 12.433 0 1 0-19.023 0 4.8 4.8 0 0 1 3.416-3.967l3.226-.922v-1.214a4.759 4.759 0 0 1-1.913-3.8v-.958a.956.956 0 0 1-.956-.956v-.956a5.739 5.739 0 1 1 11.477 0v.956a.956.956 0 0 1-.956.956v.956a4.762 4.762 0 0 1-1.913 3.8v1.215l3.228.922a4.8 4.8 0 0 1 3.414 3.967zM4.782 19.129H2.87v-1.913h1.912zm15.3-1.913h1.913v1.913h-1.91zm0 0"/><path data-name="Path 224" d="M37.464 3.295a.994.994 0 0 1 1.592 0l.161.244V0h-1.913v3.539zm0 0"/><path data-name="Path 225" d="M12.434 21.041a4.767 4.767 0 0 1-.956-.1v1.052a.95.95 0 0 1-.33.708l1.287.966 1.286-.966a.948.948 0 0 1-.33-.708v-1.047a4.77 4.77 0 0 1-.957.095zm0 0"/></g></svg>