<svg xmlns="http://www.w3.org/2000/svg" width="55.881" height="55.881" viewBox="0 0 55.881 55.881">
  <g id="computing" transform="translate(-2 -2)">
    <path id="Path_226" data-name="Path 226" d="M7.683,24.731H21.89V12.418H36.044A9.469,9.469,0,0,0,18.235,7.074l0,0A6.627,6.627,0,0,0,7.683,12.418a6.7,6.7,0,0,0,.076.951c-.026,0-.05,0-.076,0a5.683,5.683,0,1,0,0,11.366Z" fill="#24873d"/>
    <circle id="Ellipse_11" data-name="Ellipse 11" cx="2.841" cy="2.841" r="2.841" transform="translate(45.568 25.678)" fill="#24873d"/>
    <path id="Path_227" data-name="Path 227" d="M3,38.683H37.1V33H3Zm9.471-3.789h1.894v1.894H12.471Zm-3.789,0h1.894v1.894H8.683Zm-3.789,0H6.789v1.894H4.894Z" transform="translate(-0.053 -1.639)" fill="#24873d"/>
    <path id="Path_228" data-name="Path 228" d="M3,59.943H37.1V41H3Zm24.625-3.789H25.731V54.26h1.894Zm3.789,0H29.52V54.26h1.894Zm3.789,0H33.308V54.26H35.2Zm-13.26-13.26H35.2v1.894H21.943Zm0,3.789H35.2v1.894H21.943Zm0,3.789H35.2v1.894H21.943ZM4.894,57.1a6.637,6.637,0,0,1,4.2-6.162,4.736,4.736,0,1,1,6.757,0,6.637,6.637,0,0,1,4.2,6.162v.947H4.894Z" transform="translate(-0.053 -2.062)" fill="#24873d"/>
    <path id="Path_229" data-name="Path 229" d="M51.635,35H49.741a4.743,4.743,0,0,0-4.64,3.789H56.276A4.745,4.745,0,0,0,51.635,35Z" transform="translate(-2.279 -1.745)" fill="#24873d"/>
    <path id="Path_230" data-name="Path 230" d="M13.635,53H11.741A4.743,4.743,0,0,0,7.1,56.789H18.276A4.745,4.745,0,0,0,13.635,53Z" transform="translate(-0.27 -2.696)" fill="#24873d"/>
    <circle id="Ellipse_12" data-name="Ellipse 12" cx="2.841" cy="2.841" r="2.841" transform="translate(9.577 42.727)" fill="#24873d"/>
    <path id="Path_231" data-name="Path 231" d="M25,15v5.683H59.1V15Zm3.789,3.789H26.894V16.894h1.894Zm3.789,0H30.683V16.894h1.894Zm3.789,0H34.471V16.894h1.894Z" transform="translate(-1.216 -0.687)" fill="#24873d"/>
    <path id="Path_232" data-name="Path 232" d="M25,30.577H40.154V41.943H59.1V23H25Zm19.89-.947A4.736,4.736,0,1,1,53,32.939,6.637,6.637,0,0,1,57.2,39.1v.947H42.048V39.1a6.637,6.637,0,0,1,4.2-6.162A4.715,4.715,0,0,1,44.89,29.63Zm-18-4.736H42.048v1.894H26.894Z" transform="translate(-1.216 -1.11)" fill="#24873d"/>
  </g>
</svg>
