<svg xmlns="http://www.w3.org/2000/svg" width="55.881" height="55.881"><g transform="translate(-2 -2)" fill="#24873d"><path data-name="Path 226" d="M7.683 24.731H21.89V12.418h14.154a9.469 9.469 0 0 0-17.809-5.344 6.627 6.627 0 0 0-10.552 5.344 6.7 6.7 0 0 0 .076.951h-.076a5.683 5.683 0 1 0 0 11.366z"/><circle data-name="Ellipse 11" cx="2.841" cy="2.841" r="2.841" transform="translate(45.568 25.678)"/><path data-name="Path 227" d="M2.947 37.044h34.1v-5.683h-34.1zm9.471-3.789h1.894v1.894h-1.894zm-3.789 0h1.894v1.894H8.63zm-3.789 0h1.896v1.894H4.841z"/><path data-name="Path 228" d="M2.947 57.881h34.1V38.938h-34.1zm24.625-3.789h-1.894v-1.894h1.894zm3.789 0h-1.894v-1.894h1.894zm3.789 0h-1.895v-1.894h1.892zm-13.26-13.26h13.257v1.894H21.89zm0 3.789h13.257v1.894H21.89zm0 3.789h13.257v1.894H21.89zM4.841 55.038a6.637 6.637 0 0 1 4.2-6.162 4.736 4.736 0 1 1 6.757 0 6.637 6.637 0 0 1 4.2 6.162v.947H4.841z"/><path data-name="Path 229" d="M49.356 33.255h-1.894a4.743 4.743 0 0 0-4.64 3.789h11.175a4.745 4.745 0 0 0-4.641-3.789z"/><path data-name="Path 230" d="M13.365 50.304h-1.894a4.743 4.743 0 0 0-4.641 3.789h11.176a4.745 4.745 0 0 0-4.641-3.789z"/><circle data-name="Ellipse 12" cx="2.841" cy="2.841" r="2.841" transform="translate(9.577 42.727)"/><path data-name="Path 231" d="M23.784 14.313v5.683h34.1v-5.683zm3.789 3.789h-1.895v-1.895h1.894zm3.789 0h-1.895v-1.895h1.894zm3.789 0h-1.896v-1.895h1.894z"/><path data-name="Path 232" d="M23.784 29.467h15.154v11.366h18.946V21.89h-34.1zm19.89-.947a4.736 4.736 0 1 1 8.11 3.309 6.637 6.637 0 0 1 4.2 6.161v.947H40.832v-.947a6.637 6.637 0 0 1 4.2-6.162 4.715 4.715 0 0 1-1.358-3.308zm-18-4.736h15.158v1.894H25.678z"/></g></svg>