<svg xmlns="http://www.w3.org/2000/svg" width="53.721" height="48.164"><path data-name="Path 159" d="M29.639 42.016v-3.693H0v3.708a6.118 6.118 0 0 0 6.072 6.133h26.555c-.255-.232-.5-.435-.732-.667a7.727 7.727 0 0 1-2.255-5.481zm0 0" fill="#24873d"/><path data-name="Path 160" d="M20.986 19.624l4.3 2.953 4.318-2.953a5.47 5.47 0 0 0 2.119-4.052v-6.1l-6.426-3.178-6.425 3.171v6.11a5.464 5.464 0 0 0 2.114 4.052zm.968-5.767a.81.81 0 0 1 1.146.006l1.292 1.3 3.109-3.108a.811.811 0 1 1 1.146 1.147l-3.685 3.686a.814.814 0 0 1-.573.24.809.809 0 0 1-.574-.243l-1.865-1.884a.813.813 0 0 1 .006-1.148zm0 0" fill="#24873d"/><path data-name="Path 161" d="M49.426 0H49.4a4.406 4.406 0 0 0-4.362 4.372v7.437h8.683V4.358A4.338 4.338 0 0 0 49.426 0zm0 0" fill="#24873d"/><path data-name="Path 162" d="M12.443 0a4.062 4.062 0 0 0-4.084 4.026L8.119 36.7H30.45a.844.844 0 0 1 .81.848v4.466a6.133 6.133 0 0 0 6.089 6.148h.02a6.092 6.092 0 0 0 6.047-6.134V4.373A6.205 6.205 0 0 1 45.336 0zm4.808 8.959a.788.788 0 0 1 .428-.728l7.258-3.567a.8.8 0 0 1 .707 0l7.271 3.577a.788.788 0 0 1 .429.728v6.606a7.064 7.064 0 0 1-2.825 5.391l-4.761 3.265a.8.8 0 0 1-.454.141.789.789 0 0 1-.451-.141l-4.775-3.265a7.07 7.07 0 0 1-2.827-5.391zM36.818 33h-22.23a.81.81 0 1 1 0-1.621h22.23a.81.81 0 1 1 0 1.621zm0-4.284h-22.23a.81.81 0 1 1 0-1.621h22.23a.81.81 0 1 1 0 1.621zm0 0" fill="#24873d"/></svg>