<svg xmlns="http://www.w3.org/2000/svg" width="16.265" height="12.199"><g data-name="Group 162"><g data-name="Group 161" fill="#24873d"><path data-name="Path 136" d="M.34.99c2.232 1.891 6.149 5.217 7.3 6.254a.68.68 0 0 0 .984 0c1.152-1.038 5.069-4.364 7.3-6.255a.339.339 0 0 0 .048-.468A1.346 1.346 0 0 0 14.906 0H1.355A1.346 1.346 0 0 0 .291.522.339.339 0 0 0 .34.99z"/><path data-name="Path 137" d="M16.069 2.014a.337.337 0 0 0-.361.049 1002.803 1002.803 0 0 0-4.841 4.126.339.339 0 0 0 .009.521c1.35 1.081 3.384 2.568 4.853 3.625a.339.339 0 0 0 .537-.275V2.321a.339.339 0 0 0-.197-.307z"/><path data-name="Path 138" d="M.537 10.336c1.469-1.057 3.5-2.544 4.853-3.625a.339.339 0 0 0 .009-.521C3.946 4.94 2.02 3.302.558 2.062A.339.339 0 0 0 0 2.32v7.742a.339.339 0 0 0 .537.275z"/><path data-name="Path 139" d="M15.85 11.258c-1.419-1.015-4.032-2.907-5.592-4.173a.34.34 0 0 0-.436.008c-.306.267-.562.492-.744.656a1.372 1.372 0 0 1-1.891 0 59.68 59.68 0 0 0-.743-.655.338.338 0 0 0-.436-.008C4.453 8.348 1.837 10.242.416 11.259a.339.339 0 0 0-.051.506 1.358 1.358 0 0 0 .991.435h13.553a1.36 1.36 0 0 0 .991-.435.339.339 0 0 0-.051-.506z"/></g></g></svg>