<svg xmlns="http://www.w3.org/2000/svg" width="14.098" height="14.066" viewBox="0 0 14.098 14.066">
  <g id="Group_160" data-name="Group 160" transform="translate(0 0)">
    <g id="Group_159" data-name="Group 159" transform="translate(0 0)">
      <path id="Path_135" data-name="Path 135" d="M13.781,11.519,11.6,9.342a1.135,1.135,0,0,0-1.6.03l-1.1,1.1-.216-.12A10.915,10.915,0,0,1,6.052,8.44,10.976,10.976,0,0,1,4.14,5.8c-.041-.073-.08-.144-.118-.211l.736-.735.362-.362a1.134,1.134,0,0,0,.029-1.6L2.972.71a1.134,1.134,0,0,0-1.6.03l-.614.617.017.017a3.548,3.548,0,0,0-.506.892,3.7,3.7,0,0,0-.225.9c-.287,2.383.8,4.561,3.757,7.517,4.086,4.085,7.378,3.777,7.52,3.762a3.679,3.679,0,0,0,.907-.228,3.536,3.536,0,0,0,.889-.5l.013.012.622-.609A1.136,1.136,0,0,0,13.781,11.519Z" transform="translate(0 -0.394)" fill="#24873d"/>
    </g>
  </g>
</svg>
