<svg xmlns="http://www.w3.org/2000/svg" width="14.097" height="14.098"><path d="M12.037 2.064A7.042 7.042 0 0 0 .955 10.557L0 14.1l3.689-.872a7.035 7.035 0 0 0 3.364.857 7.042 7.042 0 0 0 4.981-12.019zM10.5 9.554a1.774 1.774 0 0 1-1.188.836c-.323.03-.625.146-2.111-.44a7.215 7.215 0 0 1-3-2.655 3.421 3.421 0 0 1-.718-1.819 1.969 1.969 0 0 1 .616-1.467.646.646 0 0 1 .469-.22h.337c.125 0 .264.011.4.3.156.348.5 1.218.542 1.306a.325.325 0 0 1 .015.308 1.221 1.221 0 0 1-.176.293c-.088.1-.185.229-.264.308s-.18.183-.078.359a5.293 5.293 0 0 0 .978 1.218 4.833 4.833 0 0 0 1.415.873c.176.088.278.073.381-.044s.44-.513.557-.689.235-.147.4-.088 1.026.484 1.2.572.293.132.337.205a1.473 1.473 0 0 1-.112.844z" fill="#24873d"/></svg>