<svg xmlns="http://www.w3.org/2000/svg" width="57.832" height="57.397" viewBox="0 0 57.832 57.397">
  <g id="Group_295" data-name="Group 295" transform="translate(-480.155 -1251.143)">
    <g id="Group_237" data-name="Group 237" transform="translate(486.959 1251.143)">
      <path id="Path_175" data-name="Path 175" d="M102.759.991H89.151c-2.761,0-5.343,1.669-6.8,2.829C80.886,2.66,78.3.991,75.544.991H61.936a1.7,1.7,0,0,0-1.7,1.694v9.036a13.03,13.03,0,0,0,13.041,12.99h2.268c2.194,0,4.789,2.09,5.6,2.892a1.706,1.706,0,0,0,2.405,0c.753-.75,3.4-2.892,5.6-2.892h2.268a13.03,13.03,0,0,0,13.041-12.99V2.685A1.7,1.7,0,0,0,102.759.991ZM73.843,17.934c-3.815,0-6.8-2.233-6.8-5.083s2.989-5.083,6.8-5.083,6.8,2.233,6.8,5.083S77.658,17.934,73.843,17.934Zm17.009,0c-3.815,0-6.8-2.233-6.8-5.083s2.989-5.083,6.8-5.083,6.8,2.233,6.8,5.083S94.667,17.934,90.852,17.934Z" transform="translate(-60.235 -0.991)" fill="#24873d"/>
      <path id="Path_176" data-name="Path 176" d="M304.578,90.991c-2.077,0-3.4,1-3.4,1.694s1.325,1.694,3.4,1.694,3.4-1,3.4-1.694S306.655,90.991,304.578,90.991Z" transform="translate(-273.961 -80.825)" fill="#24873d"/>
      <path id="Path_177" data-name="Path 177" d="M153.99,90.991c-2.077,0-3.4,1-3.4,1.694s1.325,1.694,3.4,1.694,3.4-1,3.4-1.694S156.067,90.991,153.99,90.991Z" transform="translate(-140.382 -80.825)" fill="#24873d"/>
    </g>
    <path id="Path_178" data-name="Path 178" d="M54.43,63.571v3.662A16.429,16.429,0,0,1,37.988,83.611H35.72a7.546,7.546,0,0,0-3.2,1.9,5.116,5.116,0,0,1-7.21.007,7.423,7.423,0,0,0-3.2-1.907H19.844A16.429,16.429,0,0,1,3.4,67.233V63.571A5.092,5.092,0,0,0,0,68.362v30.5a5.1,5.1,0,0,0,5.1,5.083h8.5v8.471a1.7,1.7,0,0,0,2.644,1.41l14.88-9.881h21.6a5.1,5.1,0,0,0,5.1-5.083v-30.5A5.092,5.092,0,0,0,54.43,63.571ZM28.916,88.129h3.4a1.694,1.694,0,1,1,0,3.389h-3.4a1.694,1.694,0,1,1,0-3.389ZM18.71,98.3h-6.8a1.694,1.694,0,1,1,0-3.389h6.8a1.694,1.694,0,1,1,0,3.389Zm3.4-6.777H11.907a1.694,1.694,0,1,1,0-3.389H22.112a1.694,1.694,0,1,1,0,3.389ZM35.72,98.3H25.514a1.694,1.694,0,1,1,0-3.389H35.72a1.694,1.694,0,1,1,0,3.389Zm10.206-6.777h-6.8a1.694,1.694,0,1,1,0-3.389h6.8a1.694,1.694,0,1,1,0,3.389Z" transform="translate(480.155 1194.429)" fill="#24873d"/>
  </g>
</svg>
