<svg data-name="Group 237" xmlns="http://www.w3.org/2000/svg" width="44.224" height="27.109"><path data-name="Path 175" d="M42.524 0H28.916c-2.761 0-5.343 1.669-6.8 2.829C20.651 1.669 18.065 0 15.309 0H1.701a1.7 1.7 0 0 0-1.7 1.694v9.036a13.03 13.03 0 0 0 13.041 12.99h2.268c2.194 0 4.789 2.09 5.6 2.892a1.706 1.706 0 0 0 2.405 0c.753-.75 3.4-2.892 5.6-2.892h2.268a13.03 13.03 0 0 0 13.041-12.99V1.694A1.7 1.7 0 0 0 42.524 0zM13.608 16.943c-3.815 0-6.8-2.233-6.8-5.083s2.989-5.083 6.8-5.083 6.8 2.233 6.8 5.083-2.985 5.083-6.8 5.083zm17.009 0c-3.815 0-6.8-2.233-6.8-5.083s2.989-5.083 6.8-5.083 6.8 2.233 6.8 5.083-2.985 5.083-6.8 5.083z" fill="#24873d"/><path data-name="Path 176" d="M30.617 10.166c-2.077 0-3.4 1-3.4 1.694s1.325 1.694 3.4 1.694 3.4-1 3.4-1.694-1.323-1.694-3.4-1.694z" fill="#24873d"/><path data-name="Path 177" d="M13.608 10.166c-2.077 0-3.4 1-3.4 1.694s1.325 1.694 3.4 1.694 3.4-1 3.4-1.694-1.323-1.694-3.4-1.694z" fill="#24873d"/></svg>