<svg xmlns="http://www.w3.org/2000/svg" width="27.519" height="48.882"><g data-name="Group 84"><g data-name="Group 69" fill="#494949" stroke="#494949" stroke-width=".15"><path data-name="Path 60" d="M24.441.075H3.078a3.006 3.006 0 0 0-3 3v45.018a.714.714 0 1 0 1.428 0v-.812h24.513v.812a.714.714 0 0 0 1.428 0V3.075a3.006 3.006 0 0 0-3.006-3zM1.503 45.853V3.075A1.577 1.577 0 0 1 3.078 1.5h21.363a1.577 1.577 0 0 1 1.575 1.575v42.778H1.503z"/><path data-name="Path 61" d="M23.678 3.127H3.836a.714.714 0 0 0-.714.714v36.622a.714.714 0 0 0 .714.714h19.837a.714.714 0 0 0 .714-.714V3.841a.714.714 0 0 0-.709-.714zm-5.39 27.467v-3.15h1.624v3.15zm-3.052 0v-3.15h1.624v3.15zm-3.052 0v-3.15h1.624v3.15zm-7.63 0v-3.15h6.2v3.15zm9.254-21.461v3.15h-1.624v-3.15zm3.052 0v3.15h-1.624v-3.15zm3.052 0v3.15h-1.624v-3.15zm3.052 0v3.15h-1.628v-3.15zm0 4.578v3.152H4.555v-3.15zM4.555 26.016v-3.153h18.409v3.15zm9.254-7.728v3.15h-1.624v-3.15zm3.052 0v3.15h-1.625v-3.15zm3.052 0v3.15h-1.624v-3.15zm-9.156 3.15h-6.2v-3.15h6.2zm10.583 0v-3.15h1.624v3.15zm0 6.005h1.624v3.15h-1.628zm1.624-22.889v3.15H8.418a.714.714 0 0 0 0 1.428h2.338v3.15h-6.2V9.133h.812a.714.714 0 1 0 0-1.428h-.812v-3.15zM4.555 39.75V36.6h14.546a.714.714 0 1 0 0-1.428H4.555v-3.15h18.409v3.15h-.812a.714.714 0 1 0 0 1.428h.812v3.15z"/><path data-name="Path 62" d="M15.286 42.798h-3.052a.714.714 0 1 0 0 1.428h3.052a.714.714 0 1 0 0-1.428z"/></g></g></svg>