<svg xmlns="http://www.w3.org/2000/svg" width="57.832" height="57.397"><g data-name="Group 295" fill="#24873d"><g data-name="Group 237"><path data-name="Path 175" d="M49.328 0H35.72c-2.761 0-5.343 1.669-6.8 2.829C27.455 1.669 24.869 0 22.113 0H8.505a1.7 1.7 0 0 0-1.7 1.694v9.036a13.03 13.03 0 0 0 13.041 12.99h2.268c2.194 0 4.789 2.09 5.6 2.892a1.706 1.706 0 0 0 2.405 0c.753-.75 3.4-2.892 5.6-2.892h2.268a13.03 13.03 0 0 0 13.041-12.99V1.694A1.7 1.7 0 0 0 49.328 0zM20.412 16.943c-3.815 0-6.8-2.233-6.8-5.083s2.989-5.083 6.8-5.083 6.8 2.233 6.8 5.083-2.985 5.083-6.8 5.083zm17.009 0c-3.815 0-6.8-2.233-6.8-5.083s2.989-5.083 6.8-5.083 6.8 2.233 6.8 5.083-2.985 5.083-6.8 5.083z"/><path data-name="Path 176" d="M37.421 10.166c-2.077 0-3.4 1-3.4 1.694s1.325 1.694 3.4 1.694 3.4-1 3.4-1.694-1.323-1.694-3.4-1.694z"/><path data-name="Path 177" d="M20.412 10.166c-2.077 0-3.4 1-3.4 1.694s1.325 1.694 3.4 1.694 3.4-1 3.4-1.694-1.323-1.694-3.4-1.694z"/></g><path data-name="Path 178" d="M54.43 6.857v3.662a16.429 16.429 0 0 1-16.442 16.378H35.72a7.546 7.546 0 0 0-3.2 1.9 5.116 5.116 0 0 1-7.21.007 7.423 7.423 0 0 0-3.2-1.907h-2.266A16.429 16.429 0 0 1 3.4 10.519V6.857A5.092 5.092 0 0 0 0 11.648v30.5a5.1 5.1 0 0 0 5.1 5.083h8.5v8.471a1.7 1.7 0 0 0 2.644 1.41l14.88-9.881h21.6a5.1 5.1 0 0 0 5.1-5.083v-30.5a5.092 5.092 0 0 0-3.394-4.791zM28.916 31.415h3.4a1.694 1.694 0 1 1 0 3.389h-3.4a1.694 1.694 0 1 1 0-3.389zM18.71 41.586h-6.8a1.694 1.694 0 1 1 0-3.389h6.8a1.694 1.694 0 1 1 0 3.389zm3.4-6.777H11.907a1.694 1.694 0 1 1 0-3.389h10.205a1.694 1.694 0 1 1 0 3.389zm13.61 6.777H25.514a1.694 1.694 0 1 1 0-3.389H35.72a1.694 1.694 0 1 1 0 3.389zm10.206-6.777h-6.8a1.694 1.694 0 1 1 0-3.389h6.8a1.694 1.694 0 1 1 0 3.389z"/></g></svg>