<svg xmlns="http://www.w3.org/2000/svg" width="208.033" height="70"><g fill="#24873d"><g data-name="Group 148"><path data-name="Path 1" d="M59.117 19.635l-4.643 5.543 4.965 4.18-8.665 10.331-9.68-8.123 7.9-9.412-2.52-2.12 5.455-6.491z" fill-rule="evenodd"/><path data-name="Path 2" d="M27.636 35.198l2.579 2.164 5.9 4.951-2.386 2.846-9.219-7.722 4.381-5.247-1.715-1.438 3.78-4.506 1.26 1.052 2.668-3.305-3.187-2.668-2.727 3.246.8.667-3.679 4.373-3.513-2.95-5.114 6.107-3.983-3.35 4.951-5.9 3.187 2.683 9.456-11.279 9.679 8.122-5.563 6.626 7.026 5.9-4.61 5.514-6.166-5.173.83-1.008-2.59-2.165z" fill-rule="evenodd"/><path data-name="Rectangle 3" d="M7.949 42.633l4.23-5.041 4.576 3.84-4.23 5.04z"/><path data-name="Path 3" d="M7.73 31.611l1.571-1.881 1.512 1.215-1.809 2.163.459.385-1.26 1.5-1.3-1.1 1.467-1.749zm-.845-.3l2.431-2.931 2.7 2.194-1.63 1.971.812.685-2.534 3.02-2.7-2.268 1.7-2.031z" fill-rule="evenodd"/><path data-name="Path 4" d="M31.505 50.493l-9.368-7.78c-2.09 5.573-.178 13.607 4.358 18.394l.726-.83 1.734 1.453-.726.845c8.908 4.343 17.1 2.549 24.16-6.359l-1.453-1.245 3.646-4.343 3.483 2.92-3.646 4.358-.86-.726c-6.863 8.864-15.9 11.9-26.131 6.433l-1.378 1.645-2.609-2.223 1.364-1.642c-3.646-4.862-5.44-9.8-5.158-14.748l-4.328 5.114 5.084 4.284-3.646 4.35-4.362-3.644 2.179-2.609-4.339-3.66-.741.86 3.5 2.935-1.484 1.763-3.439-2.905-.726.874 4.3 3.646-2.136 2.594 6.062 5.084 1.453-1.719 5.217 4.3.741-.875 3.468 2.89 2.194-2.564 2.861 2.164c3.839 1.26 6.863-.148 9.308-2.372l1.764 1.438.726-.8 2.327 1.927a19.426 19.426 0 0 0 6.107-5.217l.934.771 4.324-5.264-1.675-1.408 2.95-3.468 2.579 2.179 5.825-6.966-3.453-2.935-2.194 2.638-6.132-5.129-9.472 11.295.874.741c-3.75 4.8-7.085 7.633-11.176 5.514l-7.989-6.778z" fill-rule="evenodd"/><path data-name="Path 5" d="M35.671 53.992l-1.823-1.527-2.907 3.439 6.047 5.069 5.783-6.892-6.02-5.054-2.134 2.549 4.3 3.557-2.181 2.594-2.475-2.06z" fill-rule="evenodd"/><path data-name="Path 6" d="M45.052 51.487l-5.277-4.43 2.194-2.609 8.448.652z" fill-rule="evenodd"/><path data-name="Path 7" d="M45.14 40.668l2.935 2.46-.978 1.171-2.031-1.719-.771.919-.889-.771z" fill-rule="evenodd"/><path data-name="Path 8" d="M59.118 40.223l-1.942 2.3-2.131 2.546 3.45 2.876 3.691-4.4 3.542 2.994c3.468-5.069 4.61-10.034.267-14.422l-3.691 4.4-3.29-2.757-6.329 7.441 3.705.222 4-4.773 2.712 2.268-2.327 2.653z" fill-rule="evenodd"/><path data-name="Rectangle 4" d="M63.346 21.944l1.687-2.01 2.18 1.83-1.687 2.01z"/><path data-name="Path 9" d="M60.244 25.683l-1.556 1.808 3.024 2.535 2.964-3.527-.963-.8.815-.949-3.483-2.92-2.965 3.527.934.786 2.253-2.683 1.541 1.393-1.467 1.746z" fill-rule="evenodd"/><path data-name="Rectangle 5" d="M56.547 15.261l2.716-3.236 5.007 4.203-2.716 3.236z"/><path data-name="Rectangle 6" d="M50.883 7.452l2.163-2.578 5.132 4.307-2.163 2.578z"/><path data-name="Rectangle 7" d="M39.147 10.834l5.051-6.018 6.949 5.833-5.052 6.018z"/><path data-name="Rectangle 8" d="M40.867 3.44L43.754 0l5.2 4.363-2.887 3.44z"/><path data-name="Path 10" d="M32.646 11.424l4.7-5.321a11.21 11.21 0 0 1 3.542-2.668C37.344 1.36 33.223-.43 30.023.456l-5.07 5.973 1.734 1.467 5.128-6.018 2.608 2.165-2.95 3.454-1.14-.875-1.423 1.7z" fill-rule="evenodd"/><path data-name="Rectangle 9" d="M8.602 22.636l1.601-1.907 1.488 1.248-1.601 1.908z"/><path data-name="Rectangle 10" d="M4.258 18.727l1.468-1.749.908.763-1.468 1.749z"/><path data-name="Rectangle 11" d="M10.843 10.937l2.173-2.588.829.695-2.173 2.589z"/><path data-name="Rectangle 12" d="M17.718 6.304l2.877-3.429 1.703 1.43-2.877 3.428z"/><path data-name="Rectangle 13" d="M0 34.366l2.039-2.43L3.663 33.3l-2.039 2.43z"/><path data-name="Rectangle 14" d="M14.069 14.712l1.601-1.907 1.488 1.248-1.601 1.908z"/><path data-name="Rectangle 15" d="M21.097 16.585l4.363-5.2 1.691 1.419-4.362 5.2z"/><path data-name="Rectangle 16" d="M18.401 14.277l4.363-5.2.852.715-4.363 5.2z"/><path data-name="Path 11" d="M2.009 43.587a8.276 8.276 0 0 0 1.2 6.492l2.727-3.216z" fill-rule="evenodd"/><path data-name="Path 12" d="M68.945 31.552a6.756 6.756 0 0 0-.978-5.677l-2.372 2.816z" fill-rule="evenodd"/></g><path data-name="Path 13" d="M167.436 15.44h22.485q12.228 0 16.971 10.687a17.514 17.514 0 0 1 1.141 6.388 16.719 16.719 0 0 1-5.558 12.45 18.137 18.137 0 0 1-8.389 4.091 26.579 26.579 0 0 1-3.869.252l-14.689.163v6.344h-8.167V41.482h22.2c2.905 0 5.025-.548 6.359-1.63a9.205 9.205 0 0 0 3.706-5.336 8.907 8.907 0 0 0 .222-1.719v-.845a9.143 9.143 0 0 0-2.727-6.166 9.31 9.31 0 0 0-6.285-2.5h-23.445V15.44zm-32.089 0h27.243v8.3h-27.51a3.69 3.69 0 0 0-3.957 3.172v.593a3.69 3.69 0 0 0 2.1 3.142 3.757 3.757 0 0 0 1.349.252h13.829c3.557 0 5.958.371 7.233 1.1a12 12 0 0 1 6.507 6.418 14.7 14.7 0 0 1 1.008 5.188c0 4.046-1.882 7.441-5.662 10.212a14.311 14.311 0 0 1-3.869 1.66 28.215 28.215 0 0 1-5.41.371h-25.683l-.03-8.315h27.6a4.224 4.224 0 0 0 4.432-3.424l.059-.756a4.053 4.053 0 0 0-2.386-3.705 4.644 4.644 0 0 0-2.164-.445h-15.5q-6.092 0-10.153-5.321a11.546 11.546 0 0 1-1.764-5.973v-1.1q0-6.225 6.062-9.842a12.8 12.8 0 0 1 6.665-1.527zM77.615 35.642a20.725 20.725 0 0 1 1.986-8.8 19.993 19.993 0 0 1 11.254-10.127q3.024-1.29 9.086-1.29h18.35v7.856H98.955q-8.738 0-12.184 7.515a11.851 11.851 0 0 0-1.1 4.847 11.644 11.644 0 0 0 1.1 4.847q3.446 7.515 12.184 7.515h8.1v7.826h-7.133q-6.07 0-9.086-1.29a19.892 19.892 0 0 1-11.25-10.094 20.93 20.93 0 0 1-1.971-8.805zm19.52-3.9h21.151v24.1h-7.959V39.515H97.155v-7.771z"/><path data-name="Path 14" d="M203.927 61.137c.044-.015.1-.015.178-.03a1.707 1.707 0 0 1 .3-.015 1.265 1.265 0 0 1 .445.074.567.567 0 0 1 .3.222.671.671 0 0 1 .1.4.607.607 0 0 1-.1.371.711.711 0 0 1-.3.252 1.083 1.083 0 0 1-.445.089h-.493v-1.363zm-.489 3.335h.474v-1.616h.459a.794.794 0 0 1 .356.074.525.525 0 0 1 .237.237 1.653 1.653 0 0 1 .148.415c.059.237.1.43.148.578a2.448 2.448 0 0 0 .1.311h.5a2.349 2.349 0 0 1-.133-.371c-.044-.178-.1-.385-.163-.652a1.467 1.467 0 0 0-.193-.489.659.659 0 0 0-.341-.267v-.015a1.036 1.036 0 0 0 .356-.193.919.919 0 0 0 .252-.326.968.968 0 0 0 .089-.43 1.132 1.132 0 0 0-.074-.4.757.757 0 0 0-.222-.311.841.841 0 0 0-.267-.178 2.032 2.032 0 0 0-.356-.1 3.987 3.987 0 0 0-.459-.03 2.3 2.3 0 0 0-.326.015 2.018 2.018 0 0 0-.311.03q-.156.022-.267.044v3.674zm-3.691-2.149h-1.453v-1.172h1.527v-.4h-2.016v3.72h2.09v-.4h-1.616v-1.348h1.453v-.4zm-8.035-1.172a1.032 1.032 0 0 1 .237-.03 2.193 2.193 0 0 1 .326-.015 1.785 1.785 0 0 1 .845.178 1.182 1.182 0 0 1 .5.5 1.741 1.741 0 0 1 .163.771 1.891 1.891 0 0 1-.178.86 1.163 1.163 0 0 1-.534.534 2.119 2.119 0 0 1-.874.193h-.267c-.089 0-.163-.015-.222-.015v-2.976zm-.474 3.305a3.158 3.158 0 0 0 .4.03c.148.015.3.015.474.015a3.192 3.192 0 0 0 .667-.059 2.646 2.646 0 0 0 .548-.178 1.239 1.239 0 0 0 .415-.3 1.728 1.728 0 0 0 .4-.623 2.378 2.378 0 0 0 .133-.83 2.127 2.127 0 0 0-.133-.786 1.658 1.658 0 0 0-.385-.563 1.576 1.576 0 0 0-.623-.341 3.151 3.151 0 0 0-.889-.119c-.193 0-.371.015-.548.015a4.139 4.139 0 0 0-.474.059v3.676zm-4.239-3.705v3.72h.474v-3.72zm-4.639 3.72l1.334-3.72h-.519l-.637 1.838c-.089.237-.163.474-.237.711s-.133.459-.193.667h-.015a5.55 5.55 0 0 0-.178-.667c-.074-.237-.148-.474-.222-.726l-.578-1.838h-.519l1.215 3.72h.548zm-6.566-3.394a.968.968 0 0 1 .43.089 1.086 1.086 0 0 1 .341.237 1.4 1.4 0 0 1 .237.341 1.94 1.94 0 0 1 .133.415 2.262 2.262 0 0 1 .044.445 2.5 2.5 0 0 1-.074.593 1.5 1.5 0 0 1-.237.489 1.16 1.16 0 0 1-.371.341 1.1 1.1 0 0 1-.5.119 1.217 1.217 0 0 1-.415-.074 1.268 1.268 0 0 1-.326-.222 1.316 1.316 0 0 1-.237-.326 1.974 1.974 0 0 1-.148-.415 2.3 2.3 0 0 1-.044-.459 2.454 2.454 0 0 1 .044-.474 1.479 1.479 0 0 1 .148-.43 1.4 1.4 0 0 1 .237-.341.8.8 0 0 1 .326-.222.752.752 0 0 1 .413-.106zm.015-.385a1.822 1.822 0 0 0-.7.133 1.585 1.585 0 0 0-.548.4 1.524 1.524 0 0 0-.356.623 2.266 2.266 0 0 0-.133.8 2.545 2.545 0 0 0 .119.771 1.558 1.558 0 0 0 .341.593 1.541 1.541 0 0 0 .534.385 1.7 1.7 0 0 0 .682.133 2.225 2.225 0 0 0 .548-.074 1.777 1.777 0 0 0 .474-.237 1.373 1.373 0 0 0 .371-.4 2.069 2.069 0 0 0 .252-.548 2.56 2.56 0 0 0 .089-.7 2.379 2.379 0 0 0-.119-.756 1.679 1.679 0 0 0-.341-.593 1.541 1.541 0 0 0-.534-.385 1.4 1.4 0 0 0-.676-.145zm-6.922.445c.044-.015.1-.015.178-.03a1.707 1.707 0 0 1 .3-.015 1.265 1.265 0 0 1 .445.074.567.567 0 0 1 .3.222.671.671 0 0 1 .1.4.607.607 0 0 1-.1.371.711.711 0 0 1-.3.252 1.083 1.083 0 0 1-.445.089h-.489v-1.363zm-.475 3.335h.474v-1.616h.459a.794.794 0 0 1 .356.074.525.525 0 0 1 .237.237 1.652 1.652 0 0 1 .148.415c.059.237.1.43.148.578a2.449 2.449 0 0 0 .1.311h.5a2.348 2.348 0 0 1-.133-.371c-.044-.178-.1-.385-.163-.652a1.467 1.467 0 0 0-.193-.489.659.659 0 0 0-.341-.267v-.015a1.035 1.035 0 0 0 .356-.193.919.919 0 0 0 .252-.326.967.967 0 0 0 .089-.43 1.131 1.131 0 0 0-.074-.4.757.757 0 0 0-.222-.311.841.841 0 0 0-.267-.178 2.033 2.033 0 0 0-.356-.1 3.987 3.987 0 0 0-.459-.03 2.3 2.3 0 0 0-.326.015 2.017 2.017 0 0 0-.311.03q-.156.022-.267.044v3.674zm-5.366-3.335c.044-.015.1-.015.178-.03a1.529 1.529 0 0 1 .282-.015 1.421 1.421 0 0 1 .459.074.728.728 0 0 1 .311.237.69.69 0 0 1 .1.415.774.774 0 0 1-.119.43.654.654 0 0 1-.326.267 1.278 1.278 0 0 1-.5.089 1.122 1.122 0 0 1-.222-.015.744.744 0 0 1-.178-.03v-1.422zm-.474 3.335h.474v-1.5c.059.015.119.015.178.03h.208a2.054 2.054 0 0 0 .445-.044 1.693 1.693 0 0 0 .385-.133.916.916 0 0 0 .3-.222 1 1 0 0 0 .208-.341 1.4 1.4 0 0 0 .074-.445 1.083 1.083 0 0 0-.089-.445.884.884 0 0 0-.237-.326.913.913 0 0 0-.43-.222 1.993 1.993 0 0 0-.623-.074c-.193 0-.371.015-.519.015s-.282.03-.4.044v3.663zm-7.218-2.149h-1.453v-1.172h1.527v-.4h-2.016v3.72h2.09v-.4h-1.616v-1.348h1.453v-.4zm-5.529 1.645a1.586 1.586 0 0 1-.489.148 1.889 1.889 0 0 1-.3.015 1.586 1.586 0 0 1-.608-.1 1.374 1.374 0 0 1-.445-.3 1.263 1.263 0 0 1-.282-.474 1.971 1.971 0 0 1-.089-.623 1.773 1.773 0 0 1 .1-.652 1.269 1.269 0 0 1 .756-.771 1.51 1.51 0 0 1 .593-.1 2.012 2.012 0 0 1 .43.044 1.409 1.409 0 0 1 .326.1l.119-.385a1.076 1.076 0 0 0-.178-.074 1.3 1.3 0 0 0-.3-.059 3.158 3.158 0 0 0-.4-.03 1.9 1.9 0 0 0-.786.148 1.556 1.556 0 0 0-.608.4 1.728 1.728 0 0 0-.4.623 2.651 2.651 0 0 0-.148.8 2.293 2.293 0 0 0 .133.815 1.644 1.644 0 0 0 .385.593 1.458 1.458 0 0 0 .578.356 2.26 2.26 0 0 0 .726.119 3.409 3.409 0 0 0 .415-.03c.133-.015.237-.044.341-.059a2.043 2.043 0 0 0 .237-.089zm-6.729-3.216v3.72h.474v-3.72zm-4.639 3.72l1.334-3.72h-.519l-.623 1.838c-.089.237-.163.474-.237.711s-.133.459-.193.667h-.015a5.548 5.548 0 0 0-.178-.667c-.074-.222-.148-.474-.222-.726l-.578-1.838h-.514l1.215 3.72h.534zm-6.833-3.335c.044-.015.1-.015.178-.03a1.707 1.707 0 0 1 .3-.015 1.265 1.265 0 0 1 .445.074.567.567 0 0 1 .3.222.671.671 0 0 1 .1.4.607.607 0 0 1-.1.371.711.711 0 0 1-.3.252 1.083 1.083 0 0 1-.445.089h-.474zm-.489 3.335h.474v-1.616h.459a.794.794 0 0 1 .356.074.525.525 0 0 1 .237.237 1.652 1.652 0 0 1 .148.415q.089.356.133.578a2.45 2.45 0 0 0 .1.311h.5a2.35 2.35 0 0 1-.133-.371c-.044-.178-.1-.385-.163-.652a1.467 1.467 0 0 0-.193-.489.659.659 0 0 0-.341-.267v-.015a1.035 1.035 0 0 0 .356-.193.919.919 0 0 0 .252-.326.967.967 0 0 0 .089-.43 1.131 1.131 0 0 0-.074-.4.757.757 0 0 0-.222-.311.841.841 0 0 0-.267-.178 2.032 2.032 0 0 0-.356-.1 3.986 3.986 0 0 0-.459-.03 2.294 2.294 0 0 0-.326.015 2.018 2.018 0 0 0-.311.03q-.156.022-.267.044v3.674zm-3.691-2.149h-1.45v-1.172h1.527v-.4h-2.016v3.72h2.09v-.4h-1.6v-1.348h1.453zm-7.752 1.971a1 1 0 0 0 .252.119c.1.03.207.059.341.089a2.879 2.879 0 0 0 .356.03 1.692 1.692 0 0 0 .578-.089 1.064 1.064 0 0 0 .4-.237.888.888 0 0 0 .237-.341.983.983 0 0 0 .074-.415.973.973 0 0 0-.1-.474 1.172 1.172 0 0 0-.311-.356 1.79 1.79 0 0 0-.534-.267 2.215 2.215 0 0 1-.415-.193.692.692 0 0 1-.237-.222.627.627 0 0 1-.074-.3.457.457 0 0 1 .044-.193 1.236 1.236 0 0 1 .119-.178.558.558 0 0 1 .222-.133 1.019 1.019 0 0 1 .326-.044 2.017 2.017 0 0 1 .311.03.9.9 0 0 1 .237.074c.074.03.119.059.163.074l.133-.385a1.446 1.446 0 0 0-.208-.089 1.337 1.337 0 0 0-.282-.059 2.433 2.433 0 0 0-.341-.03 1.693 1.693 0 0 0-.489.074 1.071 1.071 0 0 0-.385.208.745.745 0 0 0-.237.326.882.882 0 0 0-.089.4.92.92 0 0 0 .119.459.939.939 0 0 0 .341.341 2.411 2.411 0 0 0 .519.252 1.672 1.672 0 0 1 .4.208.667.667 0 0 1 .222.237.675.675 0 0 1 .074.3.564.564 0 0 1-.089.326.671.671 0 0 1-.267.222.9.9 0 0 1-.415.074 2.22 2.22 0 0 1-.326-.03.984.984 0 0 1-.3-.089 1.314 1.314 0 0 1-.252-.119zm-8.834.178h2.075v-.4h-1.583v-3.32h-.474v3.72zm-5.588-1.541l.371-1.082c.03-.119.074-.222.1-.341s.059-.222.089-.341h.015c.03.1.059.222.089.326s.059.222.1.356l.371 1.067h-1.132zm1.23.371l.4 1.171h.519l-1.275-3.72h-.578l-1.254 3.719h.5l.385-1.171zm-7.352-.608h.4a1.493 1.493 0 0 1 .374.048.988.988 0 0 1 .311.133.594.594 0 0 1 .208.222.707.707 0 0 1 .074.326.773.773 0 0 1-.074.341.594.594 0 0 1-.208.222.719.719 0 0 1-.311.119.967.967 0 0 1-.356.03h-.237c-.074 0-.119-.015-.178-.015v-1.427zm0-1.571c.044-.015.089-.015.163-.03s.163-.015.267-.015a1.256 1.256 0 0 1 .43.059.565.565 0 0 1 .282.193.535.535 0 0 1 .1.356.557.557 0 0 1-.371.548 1.228 1.228 0 0 1-.43.089h-.43v-1.2zm-.474 3.335c.074.015.178.015.311.03a3.894 3.894 0 0 0 .445.015 2.9 2.9 0 0 0 .771-.089 1.323 1.323 0 0 0 .519-.267.852.852 0 0 0 .222-.326 1.024 1.024 0 0 0 .015-.8 1.127 1.127 0 0 0-.175-.279 1.619 1.619 0 0 0-.252-.193.993.993 0 0 0-.267-.1v-.015a1.272 1.272 0 0 0 .341-.193 1.328 1.328 0 0 0 .222-.282.879.879 0 0 0 .074-.341.78.78 0 0 0-.089-.385.793.793 0 0 0-.222-.267.777.777 0 0 0-.267-.148 1.149 1.149 0 0 0-.341-.089 3.452 3.452 0 0 0-.43-.03 2.3 2.3 0 0 0-.326.015 1.824 1.824 0 0 0-.3.03c-.089.015-.178.03-.252.044zm-5.232-3.379a.967.967 0 0 1 .43.089 1.086 1.086 0 0 1 .341.237 1.4 1.4 0 0 1 .237.341 1.94 1.94 0 0 1 .133.415 2.262 2.262 0 0 1 .044.445 2.5 2.5 0 0 1-.074.593 1.5 1.5 0 0 1-.237.489 1.16 1.16 0 0 1-.371.341 1.1 1.1 0 0 1-.5.119 1.217 1.217 0 0 1-.415-.074 1.268 1.268 0 0 1-.326-.222 1.316 1.316 0 0 1-.237-.326 1.973 1.973 0 0 1-.148-.415 2.3 2.3 0 0 1-.044-.459 2.453 2.453 0 0 1 .044-.474 1.479 1.479 0 0 1 .148-.43 1.4 1.4 0 0 1 .237-.341.8.8 0 0 1 .326-.222.786.786 0 0 1 .415-.108zm.03-.385a1.822 1.822 0 0 0-.7.133 1.585 1.585 0 0 0-.548.4 1.524 1.524 0 0 0-.356.623 2.266 2.266 0 0 0-.133.8 2.546 2.546 0 0 0 .119.771 1.558 1.558 0 0 0 .341.593 1.541 1.541 0 0 0 .534.385 1.7 1.7 0 0 0 .682.133 2.225 2.225 0 0 0 .548-.074 1.778 1.778 0 0 0 .474-.237 1.373 1.373 0 0 0 .371-.4 2.069 2.069 0 0 0 .252-.548 2.559 2.559 0 0 0 .089-.7 2.379 2.379 0 0 0-.119-.756 1.679 1.679 0 0 0-.341-.593 1.541 1.541 0 0 0-.534-.385 1.484 1.484 0 0 0-.677-.147zm-6.8 3.78h2.075v-.4H87.16v-3.32h-.474v3.72zm-3.646-1.956h-1.23v.385h.756v1.109a1.528 1.528 0 0 1-.237.074 2.772 2.772 0 0 1-.4.03 1.51 1.51 0 0 1-.593-.1 1.362 1.362 0 0 1-.459-.3 1.291 1.291 0 0 1-.3-.474 1.744 1.744 0 0 1-.1-.637 1.613 1.613 0 0 1 .1-.623 1.712 1.712 0 0 1 .3-.474 1.291 1.291 0 0 1 .474-.3 1.613 1.613 0 0 1 .623-.1 2.513 2.513 0 0 1 .341.015 1.189 1.189 0 0 1 .267.059c.074.03.148.044.222.074l.119-.385a.781.781 0 0 0-.222-.074 1.662 1.662 0 0 0-.311-.059 3.157 3.157 0 0 0-.4-.03 2.2 2.2 0 0 0-.845.148 1.744 1.744 0 0 0-1.038 1.008 2.543 2.543 0 0 0-.148.771 3.27 3.27 0 0 0 .059.548 2.247 2.247 0 0 0 .178.474 1.17 1.17 0 0 0 .282.371 1.487 1.487 0 0 0 .623.371 2.546 2.546 0 0 0 .771.119c.163 0 .326-.015.474-.03s.282-.044.385-.074a2.149 2.149 0 0 0 .282-.089v-1.81z"/></g></svg>