<svg xmlns="http://www.w3.org/2000/svg" width="38.78" height="48.082"><g fill="#24873d"><path data-name="Path 233" d="M10.134 21.421c2.2 4.859 6.916 6.974 9.256 6.974a10.489 10.489 0 0 0 6.306-2.923q-1.208.084-2.586.085c-.216 0-.442 0-.684-.006a2.682 2.682 0 0 1-1.634.558h-1.96a2.678 2.678 0 1 1 0-5.356h1.96a2.668 2.668 0 0 1 1.861.752h.482a21.743 21.743 0 0 0 5.287-.512 2.926 2.926 0 0 1-.219-1.114v-6.79a2.919 2.919 0 0 1 .716-1.907 11 11 0 0 0-1.336-4.381c-1.35-2.186-3.954-3.2-8.193-3.2-3.517 0-5.945.73-7.424 2.232-1.146 1.164-1.811 2.825-2.121 5.334a2.915 2.915 0 0 1 .732 1.926v6.79a2.891 2.891 0 0 1-.443 1.538z"/><path data-name="Path 234" d="M5.316 21.485h2.351a1.6 1.6 0 0 0 1.6-1.6v-6.79a1.6 1.6 0 0 0-.8-1.385c.526-5.563 2.676-9.416 10.926-9.416 4.736 0 7.693 1.215 9.3 3.823a13.2 13.2 0 0 1 1.6 5.6 1.6 1.6 0 0 0-.784 1.376v6.79a1.6 1.6 0 0 0 1.249 1.562c-1.036.678-3.182 1.37-7.624 1.37q-.54 0-1.125-.014a1.371 1.371 0 0 0-1.217-.74h-1.959a1.372 1.372 0 1 0 0 2.743h1.96a1.369 1.369 0 0 0 1.111-.57c.413.01.817.017 1.207.017 5.007 0 8.19-.855 9.48-2.551q.082-.108.151-.215h.724a1.6 1.6 0 0 0 1.6-1.6v-6.79a1.6 1.6 0 0 0-1.6-1.6h-.884a15.023 15.023 0 0 0-1.934-6.578C28.604 1.606 24.922 0 19.393 0S10.176 1.606 8.134 4.911A15.025 15.025 0 0 0 6.2 11.489h-.884a1.6 1.6 0 0 0-1.6 1.6v6.79a1.6 1.6 0 0 0 1.6 1.606z"/><path data-name="Path 235" d="M38.77 41.453c-.533-3.314-1.63-7.583-3.831-9.1-1.5-1.035-6.739-3.834-8.976-5.029l-.047-.025a.732.732 0 0 0-.8.07 9.511 9.511 0 0 1-3.817 1.846.732.732 0 0 0-.525.455l-1.386 3.653-1.389-3.655a.732.732 0 0 0-.525-.455 9.514 9.514 0 0 1-3.819-1.844.731.731 0 0 0-.8-.07c-2.212 1.182-7.519 4.04-9.017 5.05-2.534 1.707-3.641 7.884-3.837 9.1a.732.732 0 0 0 .033.36c.091.256 2.415 6.269 19.348 6.269s19.257-6.013 19.348-6.268a.732.732 0 0 0 .04-.357zm-7.884-3.806H24.18v-1.412h6.706z"/></g></svg>