<svg xmlns="http://www.w3.org/2000/svg" width="48.615" height="48.615"><path data-name="Path 236" d="M10.058 39.203v2.706h16.764v-2.706a2.527 2.527 0 0 0-1.632-2.355l-3.607-1.353a3.333 3.333 0 0 1-6.285 0l-3.607 1.353a2.526 2.526 0 0 0-1.633 2.355zm0 0" fill="#24873d"/><path data-name="Path 237" d="M17.602 45.262h13.411a.839.839 0 0 0 .838-.838v-.838H16.764v.838a.839.839 0 0 0 .838.838zm0 0" fill="#24873d"/><path data-name="Path 238" d="M18.441 32.689a3.356 3.356 0 0 0 3.353-3.353v-3.431a4.919 4.919 0 0 1-2.616-1.353l-.007-.007a9.1 9.1 0 0 1-4.083 1.379v3.412a3.356 3.356 0 0 0 3.353 3.353zm0 0" fill="#24873d"/><path data-name="Path 239" d="M16.764 34.073v.293a1.677 1.677 0 0 0 3.353 0v-.293a4.935 4.935 0 0 1-3.353 0zm0 0" fill="#24873d"/><path data-name="Path 240" d="M29.337 16.764a2.518 2.518 0 0 1-2.515-2.515v-.838H5.029v28.5h3.353v-2.7a4.214 4.214 0 0 1 2.719-3.925l3.986-1.494v-.71a5.027 5.027 0 0 1-1.4-2.119 3.351 3.351 0 0 1-2.787-3.3v-3.352a7.544 7.544 0 0 1 15.087 0v3.353a3.351 3.351 0 0 1-2.787 3.3 5.037 5.037 0 0 1-1.4 2.119v.71l3.986 1.494a4.214 4.214 0 0 1 2.719 3.925v2.699h15.081V16.765H42.22l-7.016 6.012v-6.013zm0 0" fill="#24873d"/><path data-name="Path 241" d="M23.469 29.103a1.662 1.662 0 0 0 0-2.887zm0 0" fill="#24873d"/><path data-name="Path 242" d="M13.411 29.103v-2.886a1.661 1.661 0 0 0 0 2.886zm0 0" fill="#24873d"/><path data-name="Path 243" d="M18.391 23.053l.994-.663.977.977a3.23 3.23 0 0 0 2.269.94 3.316 3.316 0 0 1 1.676.466v-.466a5.867 5.867 0 1 0-11.735 0v.466a3.316 3.316 0 0 1 1.676-.466 7.44 7.44 0 0 0 4.141-1.254zm0 0" fill="#24873d"/><path data-name="Path 244" d="M45.262 16.764h1.676V41.91h-1.676zm0 0" fill="#24873d"/><path data-name="Path 245" d="M33.528 44.424a2.518 2.518 0 0 1-2.515 2.515H17.6a2.518 2.518 0 0 1-2.515-2.515v-.838H0v2.515a2.518 2.518 0 0 0 2.515 2.515H46.1a2.518 2.518 0 0 0 2.515-2.515v-2.515H33.528zm-28.5 2.515H3.353v-1.676h1.676zm3.353 0H6.706v-1.676h1.676zm3.353 0h-1.676v-1.676h1.676zm0 0" fill="#24873d"/><path data-name="Path 246" d="M3.352 13.411a1.678 1.678 0 0 1 1.676-1.676h21.794v-1.677H4.191a2.518 2.518 0 0 0-2.515 2.515V41.91h1.676zm0 0" fill="#24873d"/><path data-name="Path 247" d="M47.777 0h-18.44a.839.839 0 0 0-.838.838v13.411a.839.839 0 0 0 .838.838h7.544v4.045l4.719-4.045h6.178a.839.839 0 0 0 .838-.838V.838A.839.839 0 0 0 47.777 0zm-9.22 6.706a2.508 2.508 0 0 1 .838 4.875v1.831h-1.676V11.58a2.511 2.511 0 0 1-1.676-2.36h1.676a.838.838 0 1 0 .838-.838 2.508 2.508 0 0 1-.838-4.875V1.676h1.68v1.831a2.511 2.511 0 0 1 1.676 2.36h-1.676a.838.838 0 1 0-.838.838zm0 0" fill="#24873d"/></svg>