<svg xmlns="http://www.w3.org/2000/svg" width="66" height="63.938"><g fill="#24873d"><path data-name="Path 193" d="M45.375 41.25a6.188 6.188 0 1 0-6.188-6.187 6.194 6.194 0 0 0 6.188 6.187z"/><path data-name="Path 194" d="M61.875 0H4.125A4.125 4.125 0 0 0 0 4.125V41.25a4.137 4.137 0 0 0 4.125 4.125h30.938v16.5a2.062 2.062 0 0 0 3.3 1.65l7.012-5.259 7.012 5.259a2.062 2.062 0 0 0 3.3-1.65v-16.5h6.188A4.137 4.137 0 0 0 66 41.25V4.125A4.137 4.137 0 0 0 61.875 0zM38.83 42.936a2.062 2.062 0 0 0-1.33-1.329l-2.22-.716.488-2.282a2.06 2.06 0 0 0-.486-1.815l-1.564-1.731 1.564-1.731a2.059 2.059 0 0 0 .486-1.815l-.488-2.282 2.22-.716a2.061 2.061 0 0 0 1.33-1.329l.717-2.223 2.281.49a2.058 2.058 0 0 0 1.817-.486l1.73-1.565 1.73 1.565a2.051 2.051 0 0 0 1.817.486l2.281-.49.717 2.223a2.062 2.062 0 0 0 1.33 1.329l2.22.716-.488 2.282a2.06 2.06 0 0 0 .486 1.815l1.564 1.731-1.564 1.731a2.059 2.059 0 0 0-.486 1.815l.488 2.282-2.22.716a2.061 2.061 0 0 0-1.33 1.329l-.72 2.222-2.281-.492a2.059 2.059 0 0 0-1.818.486l-1.73 1.566-1.73-1.566a2.062 2.062 0 0 0-1.818-.486l-2.281.492zM10.312 8.25h41.25a2.063 2.063 0 0 1 0 4.125H10.313a2.063 2.063 0 0 1 0-4.125zm0 10.313h20.625a2.063 2.063 0 0 1 0 4.125H10.312a2.063 2.063 0 0 1 0-4.125zM22.687 33H10.312a2.063 2.063 0 0 1 0-4.125h12.375a2.063 2.063 0 0 1 0 4.125z"/></g></svg>