<svg xmlns="http://www.w3.org/2000/svg" width="57.832" height="50.54"><path data-name="Path 178" d="M54.43 0v3.662A16.429 16.429 0 0 1 37.988 20.04H35.72a7.546 7.546 0 0 0-3.2 1.9 5.116 5.116 0 0 1-7.21.007 7.423 7.423 0 0 0-3.2-1.907h-2.266A16.429 16.429 0 0 1 3.4 3.662V0A5.092 5.092 0 0 0 0 4.791v30.5a5.1 5.1 0 0 0 5.1 5.083h8.5v8.471a1.7 1.7 0 0 0 2.644 1.41l14.88-9.881h21.6a5.1 5.1 0 0 0 5.1-5.083v-30.5A5.092 5.092 0 0 0 54.43 0zM28.916 24.558h3.4a1.694 1.694 0 1 1 0 3.389h-3.4a1.694 1.694 0 1 1 0-3.389zM18.71 34.729h-6.8a1.694 1.694 0 1 1 0-3.389h6.8a1.694 1.694 0 1 1 0 3.389zm3.4-6.777H11.907a1.694 1.694 0 1 1 0-3.389h10.205a1.694 1.694 0 1 1 0 3.389zm13.61 6.777H25.514a1.694 1.694 0 1 1 0-3.389H35.72a1.694 1.694 0 1 1 0 3.389zm10.206-6.777h-6.8a1.694 1.694 0 1 1 0-3.389h6.8a1.694 1.694 0 1 1 0 3.389z" fill="#24873d"/></svg>