<svg xmlns="http://www.w3.org/2000/svg" width="48.425" height="61.881"><g data-name="Group 230"><g data-name="Group 229"><path data-name="Path 171" d="M20.7 48.338a7.688 7.688 0 0 1-8.708 1.3 7.934 7.934 0 0 1-2.679-2.079l-4.03 8.913a.775.775 0 0 0 .914 1.066l2.934-.817a3.737 3.737 0 0 1 4.371 1.976l1.325 2.742a.775.775 0 0 0 1.4-.018l6.41-14.178a4.809 4.809 0 0 0-1.937 1.095z" fill="#24873d"/></g></g><g data-name="Group 232"><g data-name="Group 231"><path data-name="Path 172" d="M43.144 56.476l-4.03-8.913a7.93 7.93 0 0 1-2.68 2.079 7.688 7.688 0 0 1-8.708-1.3 4.809 4.809 0 0 0-1.939-1.09l6.41 14.178a.775.775 0 0 0 1.4.018l1.325-2.742a3.737 3.737 0 0 1 4.371-1.976l2.934.817a.775.775 0 0 0 .914-1.066z" fill="#24873d"/></g></g><g data-name="Group 234"><g data-name="Group 233"><path data-name="Path 173" d="M46.309 25.114a7.866 7.866 0 0 1-2.364-10.358 4.861 4.861 0 0 0-5.638-7.07 7.867 7.867 0 0 1-9.573-4.61 4.861 4.861 0 0 0-9.043 0 7.867 7.867 0 0 1-9.572 4.61 4.861 4.861 0 0 0-5.638 7.07 7.866 7.866 0 0 1-2.364 10.358 4.861 4.861 0 0 0 2.017 8.816 7.867 7.867 0 0 1 6.624 8.306 4.861 4.861 0 0 0 8.147 3.924 7.866 7.866 0 0 1 10.624 0 4.861 4.861 0 0 0 8.148-3.924 7.867 7.867 0 0 1 6.624-8.307 4.861 4.861 0 0 0 2.012-8.816zM24.213 40.6a15.908 15.908 0 1 1 15.908-15.908A15.926 15.926 0 0 1 24.213 40.6z" fill="#24873d"/></g></g><g data-name="Group 236"><g data-name="Group 235"><path data-name="Path 174" d="M24.213 11.751a12.942 12.942 0 1 0 12.938 12.942 12.956 12.956 0 0 0-12.938-12.942zm6.632 11.687l-8.054 5.883a1.483 1.483 0 0 1-2.088-.345l-2.409-3.43a1.483 1.483 0 1 1 2.427-1.7l1.541 2.194 6.834-4.992a1.485 1.485 0 1 1 1.749 2.4z" fill="#24873d"/></g></g></svg>