<svg xmlns="http://www.w3.org/2000/svg" width="48.425" height="61.881" viewBox="0 0 48.425 61.881">
  <g id="quality" transform="translate(-55.666)">
    <g id="Group_230" data-name="Group 230" transform="translate(60.875 47.248)">
      <g id="Group_229" data-name="Group 229" transform="translate(0)">
        <path id="Path_171" data-name="Path 171" d="M114.249,392.016a7.688,7.688,0,0,1-8.708,1.3,7.934,7.934,0,0,1-2.679-2.079l-4.03,8.913a.775.775,0,0,0,.914,1.066l2.934-.817a3.737,3.737,0,0,1,4.371,1.976l1.325,2.742a.775.775,0,0,0,1.4-.018l6.41-14.178A4.809,4.809,0,0,0,114.249,392.016Z" transform="translate(-98.758 -390.926)" fill="#24873d"/>
      </g>
    </g>
    <g id="Group_232" data-name="Group 232" transform="translate(81.453 47.248)">
      <g id="Group_231" data-name="Group 231">
        <path id="Path_172" data-name="Path 172" d="M286.379,400.154l-4.03-8.913a7.93,7.93,0,0,1-2.68,2.079,7.688,7.688,0,0,1-8.708-1.3,4.809,4.809,0,0,0-1.939-1.09l6.41,14.178a.775.775,0,0,0,1.4.018l1.325-2.742a3.737,3.737,0,0,1,4.371-1.976l2.934.817a.775.775,0,0,0,.914-1.066Z" transform="translate(-269.022 -390.926)" fill="#24873d"/>
      </g>
    </g>
    <g id="Group_234" data-name="Group 234" transform="translate(55.666)">
      <g id="Group_233" data-name="Group 233" transform="translate(0)">
        <path id="Path_173" data-name="Path 173" d="M101.975,25.114a7.866,7.866,0,0,1-2.364-10.358,4.861,4.861,0,0,0-5.638-7.07A7.867,7.867,0,0,1,84.4,3.076a4.861,4.861,0,0,0-9.043,0,7.867,7.867,0,0,1-9.572,4.61,4.861,4.861,0,0,0-5.638,7.07,7.866,7.866,0,0,1-2.364,10.358A4.861,4.861,0,0,0,59.8,33.93a7.867,7.867,0,0,1,6.624,8.306,4.861,4.861,0,0,0,8.147,3.924,7.866,7.866,0,0,1,10.624,0,4.861,4.861,0,0,0,8.148-3.924,7.867,7.867,0,0,1,6.624-8.307,4.861,4.861,0,0,0,2.012-8.816ZM79.879,40.6A15.908,15.908,0,1,1,95.787,24.692,15.926,15.926,0,0,1,79.879,40.6Z" transform="translate(-55.666)" fill="#24873d"/>
      </g>
    </g>
    <g id="Group_236" data-name="Group 236" transform="translate(66.937 11.751)">
      <g id="Group_235" data-name="Group 235">
        <path id="Path_174" data-name="Path 174" d="M161.862,97.225A12.942,12.942,0,1,0,174.8,110.167,12.956,12.956,0,0,0,161.862,97.225Zm6.632,11.687-8.054,5.883a1.483,1.483,0,0,1-2.088-.345l-2.409-3.43a1.483,1.483,0,1,1,2.427-1.7l1.541,2.194,6.834-4.992a1.483,1.483,0,1,1,1.749,2.4Z" transform="translate(-148.92 -97.225)" fill="#24873d"/>
      </g>
    </g>
  </g>
</svg>
