<svg xmlns="http://www.w3.org/2000/svg" width="42.12" height="43.606" viewBox="0 0 42.12 43.606">
  <g id="Group_247" data-name="Group 247" transform="translate(0.125 0.125)">
    <path id="Path_63" data-name="Path 63" d="M153.907,161.413a13.2,13.2,0,1,1,13.153,13.228A13.246,13.246,0,0,1,153.907,161.413Zm18.315-5.828c-.794.092-1.528.2-2.265.257a31.5,31.5,0,0,1-7.412-.213c-.4-.062-.581.034-.691.462a21.5,21.5,0,0,0-.432,8.529c.131.9.363,1.779.554,2.692a32.376,32.376,0,0,1,10.236,0A21.672,21.672,0,0,0,172.222,155.586Zm1.487,11.986c.444.118.821.21,1.192.32a8.636,8.636,0,0,1,1.107.365c.389.176.585.059.806-.281a11.557,11.557,0,0,0,1.356-10.355,10.008,10.008,0,0,0-1.672-3.138l-2.783.845A23.427,23.427,0,0,1,173.709,167.572Zm-13.207-.028a23.429,23.429,0,0,1-.009-12.219l-2.788-.843a11.648,11.648,0,0,0-.165,13.655.532.532,0,0,0,.455.167C158.811,168.079,159.616,167.817,160.5,167.544Zm2.02,1.2a7.882,7.882,0,0,0,3.031,3.956,2.862,2.862,0,0,0,2.894.116,7.466,7.466,0,0,0,3.245-4.074A31.31,31.31,0,0,0,162.522,168.741Zm.007-14.608a31.062,31.062,0,0,0,9.15-.006,8.655,8.655,0,0,0-2.405-3.543,3.218,3.218,0,0,0-4.27-.046A8.742,8.742,0,0,0,162.529,154.133Zm-3.756-.889c.673.2,1.265.368,1.855.547.268.082.405,0,.527-.262.3-.654.645-1.291.981-1.93a5.762,5.762,0,0,1,.318-.487l.359-.546A11.561,11.561,0,0,0,158.774,153.244Zm12.779-2.618c.524,1.006,1.017,1.975,1.538,2.929a.519.519,0,0,0,.423.233c.628-.145,1.242-.343,1.931-.543A11.392,11.392,0,0,0,171.553,150.626Zm-10.645,18.389-2.142.615a11.075,11.075,0,0,0,3.923,2.61Zm10.613,3.249a11.227,11.227,0,0,0,3.908-2.645l-2.126-.6Z" transform="translate(-145.533 -136.38)" fill="#494949" stroke="#494949" stroke-width="0.25"/>
    <path id="Path_64" data-name="Path 64" d="M40.341,7.906V1.534H1.52V7.968H2.1c13.978,0,16.617.036,30.6.038a5.124,5.124,0,0,1,.637.014.68.68,0,0,1,.66.7.685.685,0,0,1-.61.748,3.294,3.294,0,0,1-.636.027C18.791,9.5,16.17,9.463,2.21,9.463H1.494v2.071c0,.918-.21,1.289-.736,1.306S0,12.474,0,11.52V1.158C0,.188.185,0,1.133,0H40.649c1.015,0,1.21.194,1.21,1.206V37.13c0,.82-.222,1.181-.734,1.2-.528.018-.764-.347-.764-1.206q0-13.446,0-26.89V9.467c-.522,0-1.009,0-1.5,0-.628-.007-.955-.265-.959-.745s.317-.738.95-.748c.443-.007.886-.007,1.329-.013A.858.858,0,0,0,40.341,7.906Z" transform="translate(0 0)" fill="#494949" stroke="#494949" stroke-width="0.25"/>
    <path id="Path_65" data-name="Path 65" d="M1.494,209.455H40.367c0-.329-.006-.64,0-.951a.739.739,0,1,1,1.476-.05,14.561,14.561,0,0,1,0,1.752c-.035.56-.353.777-1.054.778q-3.428.007-6.856.006l-32.761,0C.2,210.985,0,210.78,0,209.8q0-13.233,0-26.463a3.957,3.957,0,0,1,.014-.477.679.679,0,0,1,.65-.655.676.676,0,0,1,.781.562,2.637,2.637,0,0,1,.047.631q0,12.673,0,25.346C1.494,208.968,1.494,209.195,1.494,209.455Z" transform="translate(0 -167.632)" fill="#494949" stroke="#494949" stroke-width="0.25"/>
    <path id="Path_66" data-name="Path 66" d="M38.7,32.857a2.234,2.234,0,1,1,4.468.013,2.234,2.234,0,0,1-4.468-.013Zm2.279-.738a.734.734,0,1,0-.07,1.466.719.719,0,0,0,.752-.673A.742.742,0,0,0,40.979,32.119Z" transform="translate(-35.606 -28.171)" fill="#494949" stroke="#494949" stroke-width="0.25"/>
    <path id="Path_67" data-name="Path 67" d="M117.831,32.858a2.235,2.235,0,0,1-2.232,2.222,2.236,2.236,0,1,1,.031-4.471A2.228,2.228,0,0,1,117.831,32.858Zm-1.5-.019a.737.737,0,0,0-.745-.734.755.755,0,0,0-.726.763.769.769,0,0,0,.727.711A.749.749,0,0,0,116.331,32.839Z" transform="translate(-104.298 -28.161)" fill="#494949" stroke="#494949" stroke-width="0.25"/>
    <path id="Path_68" data-name="Path 68" d="M190.329,30.58a2.235,2.235,0,1,1,0,4.47,2.235,2.235,0,0,1,0-4.47Zm.74,2.217a.724.724,0,0,0-.755-.718.735.735,0,0,0-.7.778.752.752,0,0,0,.734.7A.739.739,0,0,0,191.069,32.8Z" transform="translate(-173.063 -28.135)" fill="#494949" stroke="#494949" stroke-width="0.25"/>
    <path id="Path_69" data-name="Path 69" d="M318.5,272.82c0,.63.006,1.21,0,1.79s-.263.926-.707.947c-.462.022-.78-.334-.784-.937q-.017-2.55,0-5.1c0-.674.28-.941.937-.946q1.276-.012,2.552,0c.632.007.906.269.92.908.018.8.016,1.595,0,2.392-.012.666-.286.933-.947.943C319.836,272.828,319.2,272.82,318.5,272.82Zm.042-2.731v1.2h1.345v-1.2Z" transform="translate(-295.59 -247.097)" fill="#494949" stroke="#494949" stroke-width="0.25"/>
    <path id="Path_70" data-name="Path 70" d="M278.837,272.242c0,.885.022,1.771-.008,2.655-.022.679-.634,1.05-1.118.683a.973.973,0,0,1-.35-.663c-.029-1.787-.027-3.575-.01-5.362a.743.743,0,0,1,.731-.816c.433-.006.739.311.751.848C278.852,270.472,278.838,271.357,278.837,272.242Z" transform="translate(-259.099 -247.256)" fill="#494949" stroke="#494949" stroke-width="0.25"/>
  </g>
</svg>
