<svg xmlns="http://www.w3.org/2000/svg" width="48.432" height="48.432"><g fill="#494949"><path data-name="Path 95" d="M31.247 23.301a2.99 2.99 0 0 0-5.1-2.115l-6.931 6.931a10.206 10.206 0 0 1-3.29 2.193 6.245 6.245 0 1 0-8.933 1.094A8.6 8.6 0 0 0 0 39.839v8.593h17.967V38.41a1.42 1.42 0 0 1 .418-1.01l11.986-11.99a2.97 2.97 0 0 0 .876-2.114zM11.718 32.81l.7-.1c-.2.947-.8 1.66-1.483 1.66-.665 0-1.242-.664-1.463-1.562zm-5.469-6.251a4.687 4.687 0 1 1 4.687 4.687 4.692 4.692 0 0 1-4.687-4.687zm23.017-2.249L17.28 36.297a2.97 2.97 0 0 0-.88 2.113v8.46H5.468v-9.374H3.906v9.374H1.562v-7.031a7.04 7.04 0 0 1 6.32-6.995 3.388 3.388 0 0 0 3.054 3.089c1.6 0 2.909-1.519 3.089-3.461a11.787 11.787 0 0 0 6.291-3.252l6.931-6.931a1.428 1.428 0 0 1 2.438 1.011 1.421 1.421 0 0 1-.419 1.01z"/><path data-name="Path 96" d="M43.758 31.421a6.247 6.247 0 1 0-5.289 1.232 6.067 6.067 0 0 0-2.014 3.086l-1.119 4.1h-7.605a2.734 2.734 0 1 0 0 5.468h7.421v3.125h13.28V37.343a6.1 6.1 0 0 0-4.674-5.922zm-8.605-4.861a4.687 4.687 0 1 1 4.687 4.687 4.692 4.692 0 0 1-4.688-4.688zM46.87 46.87H36.715v-1.56h.655a3.119 3.119 0 0 0 2.964-2.137l2.59-7.772-1.481-.494-2.59 7.772a1.561 1.561 0 0 1-1.483 1.069h-9.639a1.172 1.172 0 0 1 0-2.344h8.8l1.433-5.253a4.533 4.533 0 0 1 8.907 1.194z"/><path data-name="Path 97" d="M9.374 7.812h1.562v1.562H9.374z"/><path data-name="Path 98" d="M12.499 7.812h9.374v1.562h-9.374z"/><path data-name="Path 99" d="M9.374 10.936h12.5v1.562h-12.5z"/><path data-name="Path 100" d="M9.374 14.061h12.5v1.562h-12.5z"/><path data-name="Path 101" d="M43.745 6.249h1.562v1.562h-1.562z"/><path data-name="Path 102" d="M26.56 6.249h15.623v1.562H26.56z"/><path data-name="Path 103" d="M26.56 9.374h18.748v1.562H26.56z"/><path data-name="Path 104" d="M26.56 12.499h18.748v1.562H26.56z"/><path data-name="Path 105" d="M44.526 0H27.341a3.91 3.91 0 0 0-3.906 3.906v.781H9.374a3.128 3.128 0 0 0-3.125 3.125v7.812a3.128 3.128 0 0 0 3.125 3.125h7.031v3.8l5.7-3.8h1.326A3.137 3.137 0 0 0 26.225 17a3.856 3.856 0 0 0 1.116.182h2.108l5.7 3.8v-3.8h9.374a3.91 3.91 0 0 0 3.906-3.906v-9.37A3.91 3.91 0 0 0 44.526 0zM23.435 17.186h-1.8l-3.669 2.446v-2.446H9.374a1.564 1.564 0 0 1-1.562-1.562V7.812A1.564 1.564 0 0 1 9.374 6.25h14.061v7.03a3.881 3.881 0 0 0 1.414 2.985 1.567 1.567 0 0 1-1.414.921zM46.87 13.28a2.346 2.346 0 0 1-2.344 2.344H33.59v2.446l-3.669-2.446h-2.58a2.346 2.346 0 0 1-2.344-2.344V3.906a2.346 2.346 0 0 1 2.344-2.344h17.185a2.346 2.346 0 0 1 2.344 2.344z"/><path data-name="Path 106" d="M26.56 3.125h1.562v1.562H26.56z"/><path data-name="Path 107" d="M29.684 3.125h1.562v1.562h-1.562z"/><path data-name="Path 108" d="M32.809 3.125h12.5v1.562h-12.5z"/></g></svg>