<svg xmlns="http://www.w3.org/2000/svg" width="27.519" height="48.882" viewBox="0 0 27.519 48.882">
  <g id="Group_84" data-name="Group 84" transform="translate(0.075 0.075)">
    <g id="Group_69" data-name="Group 69" transform="translate(0 0)">
      <path id="Path_60" data-name="Path 60" d="M136.591,0H115.228a3.006,3.006,0,0,0-3,3V48.018a.714.714,0,1,0,1.428,0v-.812h24.513v.812a.714.714,0,0,0,1.428,0V3A3.006,3.006,0,0,0,136.591,0ZM113.653,45.778V3a1.577,1.577,0,0,1,1.575-1.575h21.363A1.577,1.577,0,0,1,138.166,3V45.778H113.653Z" transform="translate(-112.225 0)" fill="#494949" stroke="#494949" stroke-width="0.15"/>
      <path id="Path_61" data-name="Path 61" d="M164.842,32.064H145a.714.714,0,0,0-.714.714V69.4a.714.714,0,0,0,.714.714h19.837a.714.714,0,0,0,.714-.714V32.778A.714.714,0,0,0,164.842,32.064Zm-5.39,27.467v-3.15h1.624v3.15Zm-3.052,0v-3.15h1.624v3.15Zm-3.052,0v-3.15h1.624v3.15Zm-7.63,0v-3.15h6.2v3.15Zm9.254-21.461v3.15h-1.624V38.07Zm3.052,0v3.15H156.4V38.07Zm3.052,0v3.15h-1.624V38.07Zm3.052,0v3.15H162.5V38.07Zm0,4.578V45.8H145.719v-3.15ZM145.719,54.953V51.8h18.409v3.15Zm9.254-7.728v3.15h-1.624v-3.15Zm3.052,0v3.15H156.4v-3.15Zm3.052,0v3.15h-1.624v-3.15Zm-9.156,3.15h-6.2v-3.15h6.2Zm10.583,0v-3.15h1.624v3.15Zm0,6.005h1.624v3.15H162.5Zm1.624-22.889v3.15H149.582a.714.714,0,0,0,0,1.428h2.338v3.15h-6.2V38.07h.812a.714.714,0,1,0,0-1.428h-.812v-3.15ZM145.719,68.687v-3.15h14.546a.714.714,0,1,0,0-1.428H145.719v-3.15h18.409v3.15h-.812a.714.714,0,1,0,0,1.428h.812v3.15Z" transform="translate(-141.239 -29.012)" fill="#494949" stroke="#494949" stroke-width="0.15"/>
      <path id="Path_62" data-name="Path 62" d="M236.234,448.9h-3.052a.714.714,0,1,0,0,1.428h3.052a.714.714,0,1,0,0-1.428Z" transform="translate(-221.023 -406.177)" fill="#494949" stroke="#494949" stroke-width="0.15"/>
    </g>
  </g>
</svg>
