<svg data-name="Group 301" xmlns="http://www.w3.org/2000/svg" width="49.018" height="49.018"><g data-name="Group 46"><g data-name="Group 45"><path data-name="Path 109" d="M21.241 15.522a2.454 2.454 0 0 0-2.451 2.451h1.634a.817.817 0 0 1 1.634 0h1.632a2.454 2.454 0 0 0-2.449-2.451z" fill="#494949"/></g></g><g data-name="Group 48"><g data-name="Group 47"><path data-name="Path 110" d="M27.777 15.522a2.454 2.454 0 0 0-2.451 2.451h1.634a.817.817 0 0 1 1.634 0h1.632a2.454 2.454 0 0 0-2.449-2.451z" fill="#494949"/></g></g><g data-name="Group 50"><g data-name="Group 49"><path data-name="Path 111" d="M24.509 37.58a3.268 3.268 0 1 0 3.268 3.268 3.271 3.271 0 0 0-3.268-3.268zm0 4.9a1.634 1.634 0 1 1 1.634-1.634 1.636 1.636 0 0 1-1.634 1.634z" fill="#494949"/></g></g><g data-name="Group 52"><g data-name="Group 51"><path data-name="Path 112" d="M44.116 47.384V36.763a12.268 12.268 0 0 0-12.254-12.254h-.89a9.837 9.837 0 0 0 .824-.817h.883a4.089 4.089 0 0 0 4.085-4.085v-1.439a3.67 3.67 0 0 0-.01-6.113 12.246 12.246 0 0 0-24.489 0A3.674 3.674 0 0 0 14.3 18.79h.556a9.787 9.787 0 0 0 3.194 5.719h-.89A12.268 12.268 0 0 0 4.9 36.763v10.621H0v1.634h49.018v-1.634zM35.13 19.607a2.446 2.446 0 0 1-2.123 2.417 9.716 9.716 0 0 0 1.158-3.234h.556a3.546 3.546 0 0 0 .408-.042zm1.634-4.493a2.045 2.045 0 0 1-2.042 2.042h-.408v-4.085h.408a2.045 2.045 0 0 1 2.042 2.043zm-22.059 2.042H14.3a2.042 2.042 0 0 1 0-4.085h.408zm-.405-5.718a3.447 3.447 0 0 0-.369.038 10.609 10.609 0 0 1 21.163 0 3.447 3.447 0 0 0-.369-.038h-.556a9.791 9.791 0 0 0-19.311 0zm18.381 1.614c-5.9-.208-9.8-2.618-9.8-4.881a.817.817 0 0 0-1.634 0c0 2.042-2.111 3.734-4.854 4.033a8.169 8.169 0 0 1 16.291.848zm-16.342 4.104v-3.313a7.549 7.549 0 0 0 5.8-3.175c1.709 2.265 5.7 3.859 10.542 4.021v2.467a8.119 8.119 0 0 1-1.649 4.9h-6.52v1.634h4.878a8.164 8.164 0 0 1-13.05-6.536zm5.644 9.462a9.508 9.508 0 0 0 5.05 0l-2.525 5.05zm1.2 6.06h-1.437l-3.268-6.536h1.441zm5.917-6.535h1.44l-3.268 6.536h-1.441zM8.987 36.763v10.621H6.536V36.763a10.624 10.624 0 0 1 10.128-10.6l3.256 6.51h-6.849a4.089 4.089 0 0 0-4.084 4.09zM38.4 47.384H10.621V36.763a2.454 2.454 0 0 1 2.451-2.451h22.875a2.454 2.454 0 0 1 2.453 2.451zm4.085 0h-2.454V36.763a4.089 4.089 0 0 0-4.085-4.085H29.1l3.256-6.51a10.624 10.624 0 0 1 10.128 10.6z" fill="#494949"/></g></g><g data-name="Group 54"><g data-name="Group 53"><path data-name="Rectangle 66" fill="#494949" d="M35.13 40.031h1.634v5.719H35.13z"/></g></g><g data-name="Group 56"><g data-name="Group 55"><path data-name="Rectangle 67" fill="#494949" d="M35.13 36.764h1.634v1.634H35.13z"/></g></g><g data-name="Group 58"><g data-name="Group 57"><path data-name="Rectangle 68" fill="#494949" d="M42.482 7.353h1.634v1.634h-1.634z"/></g></g><g data-name="Group 60"><g data-name="Group 59"><path data-name="Rectangle 69" fill="#494949" d="M42.482 10.621h1.634v1.634h-1.634z"/></g></g><g data-name="Group 62"><g data-name="Group 61"><path data-name="Rectangle 70" fill="#494949" d="M42.482 13.888h1.634v1.634h-1.634z"/></g></g><g data-name="Group 64"><g data-name="Group 63"><path data-name="Rectangle 71" fill="#494949" d="M4.902 17.156h1.634v1.634H4.902z"/></g></g><g data-name="Group 66"><g data-name="Group 65"><path data-name="Rectangle 72" fill="#494949" d="M4.902 20.424h1.634v1.634H4.902z"/></g></g><g data-name="Group 68"><g data-name="Group 67"><path data-name="Rectangle 73" fill="#494949" d="M4.902 23.692h1.634v1.634H4.902z"/></g></g></svg>