<svg id="Group_296" data-name="Group 296" xmlns="http://www.w3.org/2000/svg" width="48.433" height="48.432" viewBox="0 0 48.433 48.432">
  <g id="discussion" transform="translate(0 0)">
    <path id="Path_95" data-name="Path 95" d="M32.247,29.991a2.99,2.99,0,0,0-5.1-2.115l-6.931,6.931A10.206,10.206,0,0,1,16.926,37a6.245,6.245,0,1,0-8.933,1.094A8.6,8.6,0,0,0,1,46.529v8.593H18.967V45.1a1.42,1.42,0,0,1,.418-1.01L31.371,32.1a2.97,2.97,0,0,0,.876-2.114ZM12.718,39.5l.7-.1c-.2.947-.8,1.66-1.483,1.66-.665,0-1.242-.664-1.463-1.562ZM7.249,33.249a4.687,4.687,0,1,1,4.687,4.687A4.692,4.692,0,0,1,7.249,33.249ZM30.266,31,18.28,42.987A2.97,2.97,0,0,0,17.4,45.1V53.56H6.468V44.186H4.906V53.56H2.562V46.529a7.04,7.04,0,0,1,6.32-6.995,3.388,3.388,0,0,0,3.054,3.089c1.6,0,2.909-1.519,3.089-3.461a11.787,11.787,0,0,0,6.291-3.252l6.931-6.931a1.428,1.428,0,0,1,2.438,1.011A1.421,1.421,0,0,1,30.266,31Z" transform="translate(-1 -6.69)" fill="#24873d"/>
    <path id="Path_96" data-name="Path 96" d="M51.761,38.111a6.247,6.247,0,1,0-5.289,1.232,6.067,6.067,0,0,0-2.014,3.086l-1.119,4.1H35.734a2.734,2.734,0,1,0,0,5.468h7.421v3.125h13.28V44.033A6.1,6.1,0,0,0,51.761,38.111Zm-8.605-4.861a4.687,4.687,0,1,1,4.687,4.687A4.692,4.692,0,0,1,43.155,33.249ZM54.873,53.56H44.718V52h.655a3.119,3.119,0,0,0,2.964-2.137l2.59-7.772-1.481-.494-2.59,7.772a1.561,1.561,0,0,1-1.483,1.069H35.734a1.172,1.172,0,0,1,0-2.344h8.8l1.433-5.253a4.533,4.533,0,0,1,8.907,1.194Z" transform="translate(-8.003 -6.69)" fill="#24873d"/>
    <path id="Path_97" data-name="Path 97" d="M13,11h1.562v1.562H13Z" transform="translate(-3.626 -3.188)" fill="#24873d"/>
    <path id="Path_98" data-name="Path 98" d="M17,11h9.374v1.562H17Z" transform="translate(-4.501 -3.188)" fill="#24873d"/>
    <path id="Path_99" data-name="Path 99" d="M13,15H25.5v1.562H13Z" transform="translate(-3.626 -4.064)" fill="#24873d"/>
    <path id="Path_100" data-name="Path 100" d="M13,19H25.5v1.562H13Z" transform="translate(-3.626 -4.939)" fill="#24873d"/>
    <path id="Path_101" data-name="Path 101" d="M57,9h1.562v1.562H57Z" transform="translate(-13.255 -2.751)" fill="#24873d"/>
    <path id="Path_102" data-name="Path 102" d="M35,9H50.623v1.562H35Z" transform="translate(-8.44 -2.751)" fill="#24873d"/>
    <path id="Path_103" data-name="Path 103" d="M35,13H53.748v1.562H35Z" transform="translate(-8.44 -3.626)" fill="#24873d"/>
    <path id="Path_104" data-name="Path 104" d="M35,17H53.748v1.562H35Z" transform="translate(-8.44 -4.501)" fill="#24873d"/>
    <path id="Path_105" data-name="Path 105" d="M47.277,1H30.092a3.91,3.91,0,0,0-3.906,3.906v.781H12.125A3.128,3.128,0,0,0,9,8.812v7.812a3.128,3.128,0,0,0,3.125,3.125h7.031v3.8l5.7-3.8h1.326A3.137,3.137,0,0,0,28.976,18a3.856,3.856,0,0,0,1.116.182H32.2l5.7,3.8v-3.8h9.374a3.91,3.91,0,0,0,3.906-3.906V4.906A3.91,3.91,0,0,0,47.277,1ZM26.186,18.186h-1.8l-3.669,2.446V18.186H12.125a1.564,1.564,0,0,1-1.562-1.562V8.812a1.564,1.564,0,0,1,1.562-1.562H26.186V14.28A3.881,3.881,0,0,0,27.6,17.265,1.567,1.567,0,0,1,26.186,18.186ZM49.621,14.28a2.346,2.346,0,0,1-2.344,2.344H36.341v2.446l-3.669-2.446h-2.58a2.346,2.346,0,0,1-2.344-2.344V4.906a2.346,2.346,0,0,1,2.344-2.344H47.277a2.346,2.346,0,0,1,2.344,2.344Z" transform="translate(-2.751 -1)" fill="#24873d"/>
    <path id="Path_106" data-name="Path 106" d="M35,5h1.562V6.562H35Z" transform="translate(-8.44 -1.875)" fill="#24873d"/>
    <path id="Path_107" data-name="Path 107" d="M39,5h1.562V6.562H39Z" transform="translate(-9.316 -1.875)" fill="#24873d"/>
    <path id="Path_108" data-name="Path 108" d="M43,5H55.5V6.562H43Z" transform="translate(-10.191 -1.875)" fill="#24873d"/>
  </g>
</svg>
