<svg xmlns="http://www.w3.org/2000/svg" width="42.12" height="43.606"><g data-name="Group 300" fill="#24873d" stroke="#24873d" stroke-width=".25"><path data-name="Path 63" d="M8.499 25.158a13.2 13.2 0 1 1 13.153 13.228A13.246 13.246 0 0 1 8.499 25.158zm18.315-5.828c-.794.092-1.528.2-2.265.257a31.5 31.5 0 0 1-7.412-.213c-.4-.062-.581.034-.691.462a21.5 21.5 0 0 0-.432 8.529c.131.9.363 1.779.554 2.692a32.376 32.376 0 0 1 10.236 0 21.672 21.672 0 0 0 .01-11.726zm1.487 11.986c.444.118.821.21 1.192.32a8.636 8.636 0 0 1 1.107.365c.389.176.585.059.806-.281a11.557 11.557 0 0 0 1.356-10.355 10.008 10.008 0 0 0-1.672-3.138l-2.783.845a23.427 23.427 0 0 1-.006 12.245zm-13.207-.028a23.429 23.429 0 0 1-.009-12.219l-2.788-.843a11.648 11.648 0 0 0-.165 13.655.532.532 0 0 0 .455.167c.816-.224 1.621-.486 2.505-.759zm2.02 1.2a7.882 7.882 0 0 0 3.031 3.956 2.862 2.862 0 0 0 2.894.116 7.466 7.466 0 0 0 3.245-4.074 31.31 31.31 0 0 0-9.17 0zm.007-14.608a31.062 31.062 0 0 0 9.15-.006 8.655 8.655 0 0 0-2.405-3.543 3.218 3.218 0 0 0-4.27-.046 8.742 8.742 0 0 0-2.475 3.593zm-3.756-.889c.673.2 1.265.368 1.855.547.268.082.405 0 .527-.262.3-.654.645-1.291.981-1.93a5.762 5.762 0 0 1 .318-.487l.359-.546a11.561 11.561 0 0 0-4.039 2.676zm12.779-2.618c.524 1.006 1.017 1.975 1.538 2.929a.519.519 0 0 0 .423.233c.628-.145 1.242-.343 1.931-.543a11.392 11.392 0 0 0-3.891-2.621zM15.499 32.762l-2.142.615a11.075 11.075 0 0 0 3.923 2.61zm10.613 3.249a11.227 11.227 0 0 0 3.908-2.645l-2.126-.6z"/><path data-name="Path 64" d="M40.466 8.031V1.659H1.645v6.434h.58c13.978 0 16.617.036 30.6.038a5.124 5.124 0 0 1 .637.014.68.68 0 0 1 .66.7.685.685 0 0 1-.61.748 3.294 3.294 0 0 1-.636.027c-13.96.005-16.581-.032-30.541-.032h-.716v2.071c0 .918-.21 1.289-.736 1.306s-.758-.366-.758-1.32V1.283C.125.313.31.125 1.258.125h39.516c1.015 0 1.21.194 1.21 1.206v35.924c0 .82-.222 1.181-.734 1.2-.528.018-.764-.347-.764-1.206V9.592h-1.5c-.628-.007-.955-.265-.959-.745s.317-.738.95-.748c.443-.007.886-.007 1.329-.013a.858.858 0 0 0 .16-.055z"/><path data-name="Path 65" d="M1.619 41.948h38.873c0-.329-.006-.64 0-.951a.739.739 0 1 1 1.476-.05 14.561 14.561 0 0 1 0 1.752c-.035.56-.353.777-1.054.778q-3.428.007-6.856.006H1.297c-.972-.005-1.172-.21-1.172-1.19V15.83a3.957 3.957 0 0 1 .014-.477.679.679 0 0 1 .65-.655.676.676 0 0 1 .781.562 2.637 2.637 0 0 1 .047.631v25.346c.002.224.002.451.002.711z"/><path data-name="Path 66" d="M3.219 4.811a2.234 2.234 0 1 1 4.468.013 2.234 2.234 0 0 1-4.468-.013zm2.279-.738a.734.734 0 1 0-.07 1.466.719.719 0 0 0 .752-.673.742.742 0 0 0-.682-.793z"/><path data-name="Path 67" d="M13.658 4.822a2.235 2.235 0 0 1-2.232 2.222 2.236 2.236 0 1 1 .031-4.471 2.228 2.228 0 0 1 2.201 2.249zm-1.5-.019a.737.737 0 0 0-.745-.734.755.755 0 0 0-.726.763.769.769 0 0 0 .727.711.749.749 0 0 0 .744-.74z"/><path data-name="Path 68" d="M17.391 2.57a2.235 2.235 0 1 1 0 4.47 2.235 2.235 0 0 1 0-4.47zm.74 2.217a.724.724 0 0 0-.755-.718.735.735 0 0 0-.7.778.752.752 0 0 0 .734.7.739.739 0 0 0 .721-.757z"/><path data-name="Path 69" d="M23.035 25.848c0 .63.006 1.21 0 1.79s-.263.926-.707.947c-.462.022-.78-.334-.784-.937q-.017-2.55 0-5.1c0-.674.28-.941.937-.946q1.276-.012 2.552 0c.632.007.906.269.92.908.018.8.016 1.595 0 2.392-.012.666-.286.933-.947.943-.635.011-1.271.003-1.971.003zm.042-2.731v1.2h1.345v-1.2z"/><path data-name="Path 70" d="M19.863 25.111c0 .885.022 1.771-.008 2.655-.022.679-.634 1.05-1.118.683a.973.973 0 0 1-.35-.663 208.35 208.35 0 0 1-.01-5.362.743.743 0 0 1 .731-.816c.433-.006.739.311.751.848.019.885.005 1.77.004 2.655z"/></g></svg>