<svg data-name="Group 252" xmlns="http://www.w3.org/2000/svg" width="30.863" height="48.732"><g data-name="Group 44" fill="#494949"><path data-name="Path 71" d="M15.432 21.929a2.437 2.437 0 1 0 2.437 2.437 2.437 2.437 0 0 0-2.437-2.437zm0 3.249a.812.812 0 1 1 .812-.812.812.812 0 0 1-.812.812z"/><path data-name="Path 72" d="M15.432 19.493a4.878 4.878 0 0 0-4.873 4.873c0 1.425 1.188 3.518 3.525 6.213.452.528.767.851.767.851a.812.812 0 0 0 1.148.014l.014-.014s.315-.325.762-.847a24.918 24.918 0 0 0 2.609-3.524 5.687 5.687 0 0 0 .92-2.694 4.8 4.8 0 0 0-.975-2.924 4.9 4.9 0 0 0-3.897-1.948zm2.548 6.755a23.987 23.987 0 0 1-2.437 3.276l-.112.132-.118-.136c-1.96-2.261-3.131-4.188-3.131-5.153a3.249 3.249 0 0 1 5.848-1.949 3.193 3.193 0 0 1 .65 1.949 4.152 4.152 0 0 1-.7 1.88z"/><path data-name="Path 73" d="M26.8 0H4.061A4.066 4.066 0 0 0 0 4.061v40.61a4.066 4.066 0 0 0 4.061 4.061H26.8a4.066 4.066 0 0 0 4.061-4.061V4.061A4.066 4.066 0 0 0 26.8 0zm0 47.107H4.061a2.437 2.437 0 0 1-2.437-2.437v-.02a4.022 4.022 0 0 0 2.437.834H26.8a4.016 4.016 0 0 0 2.437-.834v.021a2.437 2.437 0 0 1-2.437 2.437zm0-3.249H4.061a2.437 2.437 0 0 1-2.437-2.437V4.061a2.437 2.437 0 0 1 2.437-2.437H26.8a2.437 2.437 0 0 1 2.437 2.437v37.361a2.437 2.437 0 0 1-2.437 2.437z"/></g><path data-name="Path 74" d="M12.995 3.249h1.624v1.624h-1.624z" fill="#494949"/><path data-name="Path 75" d="M16.244 3.249h1.624v1.624h-1.624z" fill="#494949"/><path data-name="Path 76" d="M25.991 2.436H21.93a2.437 2.437 0 0 0-2.437 2.437.812.812 0 0 1-.812.812h-6.5a.812.812 0 0 1-.812-.812 2.437 2.437 0 0 0-2.432-2.437H4.876a2.437 2.437 0 0 0-2.439 2.437v33.3a2.437 2.437 0 0 0 2.437 2.437h21.117a2.437 2.437 0 0 0 2.437-2.437v-33.3a2.437 2.437 0 0 0-2.437-2.437zm.812 26.8h-4.066v-8.119h4.061zM21.93 19.49a.812.812 0 0 0-.812.812v9.746a.812.812 0 0 0 .812.812h4.873v1.624h-9.746a.812.812 0 0 0-.812.812v5.685h-1.624V33.3a.812.812 0 0 0-.812-.812H4.063v-1.625h6.5a.812.812 0 1 0 0-1.624h-6.5v-1.625h4.061a.812.812 0 0 0 .812-.812v-5.685a.812.812 0 0 0-.812-.812H4.063V18.68h11.374a.812.812 0 0 0 .812-.812v-7.31h1.624v7.31a.812.812 0 1 0 1.624 0v-7.31h1.624v6.5a.812.812 0 0 0 .812.812h4.873v1.624zM4.062 21.927h3.249v4.061H4.062zm0-11.371h10.559v6.5H4.061zm22.742 0v5.685h-4.067v-5.683zm-21.929-6.5h4.062a.812.812 0 0 1 .812.812 2.437 2.437 0 0 0 2.437 2.437h6.5a2.437 2.437 0 0 0 2.437-2.437.812.812 0 0 1 .812-.812h4.061a.812.812 0 0 1 .812.812v4.068H4.061V4.873a.812.812 0 0 1 .813-.813zm-.812 34.112v-4.056h8.934v4.873H4.875a.812.812 0 0 1-.814-.812zm22.742 0a.812.812 0 0 1-.812.812h-8.122v-4.868h8.934z" fill="#494949"/><path data-name="Path 77" d="M12.995 41.422h4.873v1.624h-4.873z" fill="#494949"/></svg>