<svg xmlns="http://www.w3.org/2000/svg" width="43.337" height="43.341"><g data-name="Group 299" fill="#24873d" stroke="#24873d" stroke-width=".15"><path data-name="Path 54" d="M36.775 24.542a6.484 6.484 0 0 0 6.476-6.476v-1.44a7.18 7.18 0 0 0-9.05-6.949 7.854 7.854 0 0 0-8.22-3.702V2.234A2.159 2.159 0 0 0 23.822.075H2.234A2.159 2.159 0 0 0 .075 2.234v38.859a2.159 2.159 0 0 0 2.159 2.159h21.588a2.159 2.159 0 0 0 2.159-2.159V24.542h1.439v15.833a.72.72 0 0 0 .72.72h9.457a2.878 2.878 0 1 0 0-1.439h-8.738V24.542h3.6v2.981a2.878 2.878 0 1 0 1.439 0v-2.981zm3.6 14.392a1.439 1.439 0 1 1-1.441 1.441 1.439 1.439 0 0 1 1.441-1.441zm-5.757-8.635a1.439 1.439 0 1 1-1.443-1.44 1.439 1.439 0 0 1 1.441 1.439zM33.21 10.86a.72.72 0 0 0 .884.36 5.878 5.878 0 0 1 1.962-.35 5.763 5.763 0 0 1 5.757 5.757v1.438a5.044 5.044 0 0 1-5.038 5.037h-18.71a5.044 5.044 0 0 1-5.037-5.037v-1.439a5.044 5.044 0 0 1 5.037-5.037 4.893 4.893 0 0 1 2.211.522.72.72 0 0 0 1.007-.419 6.363 6.363 0 0 1 1.6-2.564 6.531 6.531 0 0 1 4.537-1.853 6.443 6.443 0 0 1 5.79 3.589zM21.663 8.334a7.824 7.824 0 0 0-1.467 2.18 6.321 6.321 0 0 0-2.131-.365 6.484 6.484 0 0 0-6.476 6.476v1.44a6.484 6.484 0 0 0 6.476 6.476h1.439v9.355h-2.261a2.878 2.878 0 1 0 0 1.439h2.981a.72.72 0 0 0 .72-.72V24.542h.72v14.392H4.393V5.832h17.27zm-5.757 26.282a1.439 1.439 0 1 1-1.439-1.441 1.439 1.439 0 0 1 1.439 1.441zm4.318-33.1a.72.72 0 0 1-.72.72H6.551a.72.72 0 0 1-.72-.72zm4.318 39.578a.72.72 0 0 1-.72.72H2.234a.72.72 0 0 1-.72-.72V2.234a.72.72 0 0 1 .72-.72h2.159a2.159 2.159 0 0 0 2.158 2.161h12.953a2.159 2.159 0 0 0 2.159-2.159h2.159a.72.72 0 0 1 .72.72v4.156a7.76 7.76 0 0 0-1.439.735V5.112a.72.72 0 0 0-.72-.72H3.675a.72.72 0 0 0-.72.72v34.541a.72.72 0 0 0 .72.72h18.71a.72.72 0 0 0 .72-.72V24.542h1.439z"/><path data-name="Path 55" d="M6.552 29.579h2.159v1.439a.72.72 0 0 0 .444.665.71.71 0 0 0 .276.055.719.719 0 0 0 .509-.211l4.318-4.318a.72.72 0 0 0 0-1.018L9.94 21.873a.72.72 0 0 0-1.228.509v1.439h-2.16a.72.72 0 0 0-.72.72v4.322a.72.72 0 0 0 .72.716zm.72-4.318h2.16a.72.72 0 0 0 .72-.72v-.422l2.581 2.58-2.581 2.581v-.417a.72.72 0 0 0-.72-.72H7.271z"/><path data-name="Path 56" d="M22.438 15.463a.72.72 0 0 0 .665.444h1.439v3.6a.72.72 0 0 0 .72.72h4.321a.72.72 0 0 0 .72-.72v-3.6h1.439a.72.72 0 0 0 .509-1.228l-4.318-4.318a.72.72 0 0 0-1.018 0l-4.318 4.318a.72.72 0 0 0-.159.784zm4.983-3.576l2.581 2.581h-.419a.72.72 0 0 0-.72.72v3.6h-2.88v-3.6a.72.72 0 0 0-.72-.72h-.422z"/><path data-name="Path 57" d="M7.991 11.589A2.159 2.159 0 1 0 5.832 9.43a2.159 2.159 0 0 0 2.159 2.159zm0-2.878a.72.72 0 1 1-.72.72.72.72 0 0 1 .72-.721z"/><path data-name="Path 58" d="M7.991 18.785a2.159 2.159 0 1 0-2.159-2.159 2.159 2.159 0 0 0 2.159 2.159zm0-2.878a.72.72 0 1 1-.72.72.72.72 0 0 1 .72-.721z"/><path data-name="Path 59" d="M7.991 38.214a2.159 2.159 0 1 0-2.159-2.159 2.159 2.159 0 0 0 2.159 2.159zm0-2.878a.72.72 0 1 1-.72.72.72.72 0 0 1 .72-.721z"/><path data-name="Rectangle 65" d="M22.383 2.234h1.439v1.439h-1.439z"/></g></svg>