<svg xmlns="http://www.w3.org/2000/svg" width="52.543" height="61.702"><path data-name="Path 183" d="M26.274 19.096A11.756 11.756 0 1 0 38.03 30.852a11.77 11.77 0 0 0-11.756-11.756zm6.98 9.542l-8.422 8.422a1.81 1.81 0 0 1-2.56 0l-3.219-3.219a1.81 1.81 0 0 1 2.56-2.56l1.939 1.939 7.143-7.142a1.81 1.81 0 0 1 2.56 2.56zm0 0" fill="#24873d"/><path data-name="Path 184" d="M52.482 16.741v-.048a64.323 64.323 0 0 1-.056-1.917 6.539 6.539 0 0 0-6.157-6.406C39.173 7.974 33.685 5.66 29 1.09l-.04-.038a3.949 3.949 0 0 0-5.367 0l-.04.038C18.86 5.66 13.372 7.974 6.278 8.37A6.539 6.539 0 0 0 .12 14.776a61.85 61.85 0 0 1-.056 1.917v.111c-.138 7.234-.309 16.237 2.7 24.409a31.072 31.072 0 0 0 7.454 11.611 38.995 38.995 0 0 0 14.588 8.628 4.518 4.518 0 0 0 .6.163 4.416 4.416 0 0 0 1.736 0 4.532 4.532 0 0 0 .6-.164 39.021 39.021 0 0 0 14.572-8.633 31.115 31.115 0 0 0 7.453-11.617c3.023-8.192 2.852-17.212 2.715-24.46zM26.271 46.229a15.377 15.377 0 1 1 15.377-15.377 15.394 15.394 0 0 1-15.377 15.377zm0 0" fill="#24873d"/></svg>