<svg xmlns="http://www.w3.org/2000/svg" width="56.849" height="47.712"><g fill="#24873d"><path data-name="Path 167" d="M39.591 1.015A1.015 1.015 0 0 0 38.576 0h-20.3a1.015 1.015 0 0 0-1.018 1.015v6.091h22.333zm0 0"/><path data-name="Path 168" d="M10.335 29.436h14.029v-3.042a3.046 3.046 0 0 1 3.045-3.045h2.03a3.046 3.046 0 0 1 3.045 3.045v3.042h14.031a1 1 0 0 0 .885-.517l9.449-17V9.136H0v2.783l9.441 17a1.007 1.007 0 0 0 .894.524zm0 0"/><path data-name="Path 169" d="M27.409 25.379h2.03a1.015 1.015 0 0 1 1.015 1.015v8.121a1.015 1.015 0 0 1-1.015 1.015h-2.03a1.015 1.015 0 0 1-1.015-1.015v-8.121a1.015 1.015 0 0 1 1.015-1.015zm0 0"/><path data-name="Path 170" d="M56.849 16.097l-7.671 13.806a3.032 3.032 0 0 1-2.664 1.566H32.485v3.045a3.046 3.046 0 0 1-3.045 3.045h-2.03a3.046 3.046 0 0 1-3.045-3.045v-3.045h-14.03a3.039 3.039 0 0 1-2.668-1.574L.001 16.098v31.614h56.848zm0 0"/></g></svg>