<svg xmlns="http://www.w3.org/2000/svg" width="44.952" height="52.827" viewBox="0 0 44.952 52.827">
  <g id="certificate" transform="translate(-0.436)">
    <path id="Path_216" data-name="Path 216" d="M107.826,0h-2.869V6.7a.964.964,0,0,1-.679.918.93.93,0,0,1-.277.038.941.941,0,0,1-.794-.431l-1.119-1.674-1.119,1.674a.948.948,0,0,1-1.071.392.963.963,0,0,1-.679-.918V0H73.394a.956.956,0,0,0-.956.956V4.371a13.663,13.663,0,0,1,3.826-.545,14.346,14.346,0,1,1,0,28.693,13.663,13.663,0,0,1-3.826-.545V46.865a.956.956,0,0,0,.956.956H91.567V44.933a9.564,9.564,0,1,1,11.477,0v2.888h4.782a.956.956,0,0,0,.956-.956V.956A.956.956,0,0,0,107.826,0ZM76.264,38.257h1.913V40.17H76.264ZM82,44H76.264V42.083H82Zm0-3.826H80.089V38.257H82Zm22.954-19.129H93.479V19.129h11.477Zm0-3.826H93.479V15.3h11.477Zm0-3.826H93.479V11.477h11.477Zm0,0" transform="translate(-63.394 0)" fill="#24873d"/>
    <path id="Path_217" data-name="Path 217" d="M248.438,385.273v6.766l3.333-2a.956.956,0,0,1,.985,0l3.333,2v-6.766A9.5,9.5,0,0,1,248.438,385.273Zm0,0" transform="translate(-218.352 -339.212)" fill="#24873d"/>
    <path id="Path_218" data-name="Path 218" d="M83.307,120.971a2.869,2.869,0,0,0,2.869-2.869v-1.235a2.825,2.825,0,0,1-1.326-1.2l-.524.349a6.676,6.676,0,0,1-3.714,1.125h-.175v.956a2.869,2.869,0,0,0,2.869,2.869Zm0,0" transform="translate(-70.437 -101.843)" fill="#24873d"/>
    <path id="Path_219" data-name="Path 219" d="M250,276.782A4.782,4.782,0,1,1,245.22,272,4.782,4.782,0,0,1,250,276.782Zm0,0" transform="translate(-211.309 -239.481)" fill="#24873d"/>
    <path id="Path_220" data-name="Path 220" d="M231.741,255.651a7.651,7.651,0,1,0-7.651,7.651A7.652,7.652,0,0,0,231.741,255.651Zm-7.651,6.7a6.7,6.7,0,1,1,6.7-6.7A6.695,6.695,0,0,1,224.089,262.346Zm0,0" transform="translate(-190.178 -218.351)" fill="#24873d"/>
    <path id="Path_221" data-name="Path 221" d="M55.741,200.6v-1.154a2.881,2.881,0,0,0-2.08-2.762l-2.081-.594-2.917,2.189a.955.955,0,0,1-1.147,0L44.6,196.09l-2.08.593a2.883,2.883,0,0,0-2.08,2.763V200.6a12.439,12.439,0,0,0,1.913,1.243v-2.416h1.913v3.217a12.333,12.333,0,0,0,7.651,0v-3.217h1.913v2.411a12.492,12.492,0,0,0,1.913-1.239Zm0,0" transform="translate(-35.22 -172.647)" fill="#24873d"/>
    <path id="Path_222" data-name="Path 222" d="M76.222,82.926l1.423-.949a.957.957,0,0,1,1.387.369l.425.853a.957.957,0,0,0,.631.5,3.826,3.826,0,1,0-7.651.026h1.131a4.77,4.77,0,0,0,2.654-.8Zm0,0" transform="translate(-63.393 -70.339)" fill="#24873d"/>
    <path id="Path_223" data-name="Path 223" d="M22.381,68.311a12.433,12.433,0,1,0-19.023,0,4.8,4.8,0,0,1,3.416-3.967L10,63.422V62.208a4.759,4.759,0,0,1-1.913-3.8V57.45a.956.956,0,0,1-.956-.956v-.956a5.739,5.739,0,1,1,11.477,0v.956a.956.956,0,0,1-.956.956v.956a4.762,4.762,0,0,1-1.913,3.8v1.215l3.228.922a4.8,4.8,0,0,1,3.414,3.967ZM5.218,61.276H3.306V59.363H5.218Zm15.3-1.913h1.913v1.913H20.521Zm0,0" transform="translate(0 -42.147)" fill="#24873d"/>
    <path id="Path_224" data-name="Path 224" d="M312.6,3.295a.994.994,0,0,1,1.592,0l.161.244V0h-1.913V3.539Zm0,0" transform="translate(-274.7)" fill="#24873d"/>
    <path id="Path_225" data-name="Path 225" d="M94.963,175.295a4.767,4.767,0,0,1-.956-.1v1.052a.95.95,0,0,1-.33.708l1.287.966,1.286-.966a.948.948,0,0,1-.33-.708V175.2A4.77,4.77,0,0,1,94.963,175.295Zm0,0" transform="translate(-82.093 -154.254)" fill="#24873d"/>
  </g>
</svg>
