<svg id="folder" xmlns="http://www.w3.org/2000/svg" width="63.48" height="52.813" viewBox="0 0 63.48 52.813">
  <path id="Path_181" data-name="Path 181" d="M113.843,87.383H67.408a4.631,4.631,0,0,0-4.639,4.563v37.4h51.074a4.687,4.687,0,0,0,4.624-4.654V91.946A4.608,4.608,0,0,0,113.843,87.383Zm-27.559,20.2a1.247,1.247,0,0,1-.137-1.74l2.609-3.052H84.194a5.616,5.616,0,0,0,0,11.231,1.221,1.221,0,0,1,0,2.441,8.065,8.065,0,0,1,0-16.13h4.547l-2.594-2.975a1.192,1.192,0,0,1,.122-1.694,1.229,1.229,0,0,1,1.725.122l4.334,5.02.015.015c.015.015.031.031.031.046.015.016.031.03.031.046s.015.031.03.046.015.03.031.046.015.031.03.046.016.031.031.046c0,.015.015.031.015.046s.015.031.015.061c0,.015.015.03.015.045s.015.046.015.061.015.031.015.046c0,.031.015.046.015.076,0,.015.016.031.016.046,0,.046.03.076.03.122,0,0-.03,0-.03.015,0,.031-.031.076-.031.107v.046a.137.137,0,0,1-.015.077.056.056,0,0,1-.015.046c0,.015-.015.046-.015.061s-.015.03-.015.046-.015.03-.015.061c0,.015-.015.03-.015.046-.016.016-.016.031-.031.061s-.015.031-.03.046-.015.03-.031.046-.015.03-.03.046-.031.03-.031.046-.015.03-.03.045v.016l-4.334,5.051a1.243,1.243,0,0,1-.931.427A1.189,1.189,0,0,1,86.284,107.587Zm9.782,8.942H91.518l2.594,2.976a1.19,1.19,0,0,1-.122,1.694,1.229,1.229,0,0,1-1.725-.137l-4.334-5.02-.015-.015c-.015-.015-.031-.031-.031-.046-.016-.015-.031-.03-.031-.046-.016-.015-.016-.03-.031-.045s-.015-.031-.031-.046-.015-.031-.03-.046-.015-.03-.031-.045c0-.015-.015-.031-.015-.046s-.015-.03-.015-.061c0-.015-.015-.03-.015-.046s-.015-.046-.015-.061a.056.056,0,0,0-.015-.046.139.139,0,0,0-.015-.076v-.168a.015.015,0,0,1-.016-.015v-.153a.136.136,0,0,1,.016-.077.056.056,0,0,1,.015-.045c0-.016.015-.046.015-.061s.015-.031.015-.046.015-.031.015-.061c0-.015.015-.03.015-.046.015-.016.015-.031.031-.061.015-.015.015-.03.03-.046s.015-.031.03-.046.015-.031.031-.046.03-.03.03-.046c.016-.015.016-.03.031-.046v-.015l4.334-5.051a1.214,1.214,0,0,1,1.725-.122,1.248,1.248,0,0,1,.137,1.74l-2.609,3.052H96.05a5.631,5.631,0,0,0,0-11.261,1.221,1.221,0,0,1,0-2.442,8.087,8.087,0,0,1,.015,16.175Zm0,0" transform="translate(-54.987 -76.549)" fill="#24873d"/>
  <path id="Path_182" data-name="Path 182" d="M29.313,8.393l-5.4-6.668A4.6,4.6,0,0,0,20.372,0H4.624A4.677,4.677,0,0,0,0,4.654v43.5a4.687,4.687,0,0,0,4.624,4.654h.717V15.4a7.069,7.069,0,0,1,7.08-7Zm0,0" fill="#24873d"/>
</svg>
