<svg id="envelope" xmlns="http://www.w3.org/2000/svg" width="16.265" height="12.199" viewBox="0 0 16.265 12.199">
  <g id="Group_162" data-name="Group 162" transform="translate(0 0)">
    <g id="Group_161" data-name="Group 161" transform="translate(0 0)">
      <path id="Path_136" data-name="Path 136" d="M7.034,64.99c2.232,1.891,6.149,5.217,7.3,6.254a.68.68,0,0,0,.984,0c1.152-1.038,5.069-4.364,7.3-6.255a.339.339,0,0,0,.048-.468A1.346,1.346,0,0,0,21.6,64H8.049a1.346,1.346,0,0,0-1.064.522A.339.339,0,0,0,7.034,64.99Z" transform="translate(-6.694 -64)" fill="#24873d"/>
      <path id="Path_137" data-name="Path 137" d="M343.664,126.443a.337.337,0,0,0-.361.049c-1.462,1.239-3.388,2.877-4.841,4.126a.339.339,0,0,0,.009.521c1.35,1.081,3.384,2.568,4.853,3.625a.339.339,0,0,0,.537-.275v-7.739A.339.339,0,0,0,343.664,126.443Z" transform="translate(-327.595 -124.429)" fill="#24873d"/>
      <path id="Path_138" data-name="Path 138" d="M.537,134.774c1.469-1.057,3.5-2.544,4.853-3.625a.339.339,0,0,0,.009-.521C3.946,129.378,2.02,127.74.558,126.5a.339.339,0,0,0-.558.258V134.5a.339.339,0,0,0,.537.275Z" transform="translate(0 -124.438)" fill="#24873d"/>
      <path id="Path_139" data-name="Path 139" d="M24.2,288.865c-1.419-1.015-4.032-2.907-5.592-4.173a.34.34,0,0,0-.436.008c-.306.267-.562.492-.744.656a1.372,1.372,0,0,1-1.891,0c-.181-.163-.437-.389-.743-.655a.338.338,0,0,0-.436-.008c-1.555,1.262-4.171,3.156-5.592,4.173a.339.339,0,0,0-.051.506,1.358,1.358,0,0,0,.991.435H23.259a1.36,1.36,0,0,0,.991-.435.339.339,0,0,0-.051-.506Z" transform="translate(-8.35 -277.607)" fill="#24873d"/>
    </g>
  </g>
</svg>
