<svg xmlns="http://www.w3.org/2000/svg" width="208.033" height="70" viewBox="0 0 208.033 70">
  <g id="gsplogowhite" transform="translate(0.005 -0.003)">
    <g id="Group_148" data-name="Group 148" transform="translate(-0.005 0.003)">
      <path id="Path_1" data-name="Path 1" d="M45.743,15.232,41.1,20.775l4.965,4.18L37.4,35.286,27.72,27.163l7.9-9.412-2.52-2.12L38.555,9.14Z" transform="translate(13.374 4.403)" fill="#24873d" fill-rule="evenodd"/>
      <path id="Path_2" data-name="Path 2" d="M23.245,30.346l2.579,2.164,5.9,4.951-2.386,2.846-9.219-7.722L24.5,27.338,22.785,25.9l3.78-4.506,1.26,1.052,2.668-3.305-3.187-2.668-2.727,3.246.8.667L21.7,24.759l-3.513-2.95-5.114,6.107L9.09,24.566l4.951-5.9,3.187,2.683L26.684,10.07l9.679,8.122L30.8,24.818l7.026,5.9-4.61,5.514-6.166-5.173.83-1.008L25.29,27.886Z" transform="translate(4.391 4.852)" fill="#24873d" fill-rule="evenodd"/>
      <rect id="Rectangle_3" data-name="Rectangle 3" width="6.581" height="5.973" transform="translate(7.949 42.633) rotate(-49.998)" fill="#24873d"/>
      <path id="Path_3" data-name="Path 3" d="M5.784,22.381,7.355,20.5l1.512,1.215L7.058,23.878l.459.385-1.26,1.5-1.3-1.1,1.467-1.749Zm-.845-.3L7.37,19.15l2.7,2.194-1.63,1.971L9.252,24,6.718,27.02l-2.7-2.268,1.7-2.031Z" transform="translate(1.946 9.23)" fill="#24873d" fill-rule="evenodd"/>
      <path id="Path_4" data-name="Path 4" d="M29.11,36.6,19.742,28.82c-2.09,5.573-.178,13.607,4.358,18.394l.726-.83,1.734,1.453-.726.845c8.908,4.343,17.1,2.549,24.16-6.359l-1.453-1.245,3.646-4.343,3.483,2.92-3.646,4.358-.86-.726c-6.863,8.864-15.9,11.9-26.131,6.433l-1.378,1.645-2.609-2.223L22.41,47.5c-3.646-4.862-5.44-9.8-5.158-14.748l-4.328,5.114,5.084,4.284L14.362,46.5,10,42.856l2.179-2.609L7.84,36.587l-.741.86,3.5,2.935L9.115,42.145,5.676,39.24l-.726.874,4.3,3.646L7.114,46.354l6.062,5.084,1.453-1.719,5.217,4.3.741-.875,3.468,2.89,2.194-2.564,2.861,2.164c3.839,1.26,6.863-.148,9.308-2.372L40.182,54.7l.726-.8,2.327,1.927a19.426,19.426,0,0,0,6.107-5.217l.934.771L54.6,46.117l-1.675-1.408,2.95-3.468,2.579,2.179,5.825-6.966-3.453-2.935-2.194,2.638L52.5,31.028,43.028,42.323l.874.741c-3.75,4.8-7.085,7.633-11.176,5.514L24.737,41.8Z" transform="translate(2.395 13.893)" fill="#24873d" fill-rule="evenodd"/>
      <path id="Path_5" data-name="Path 5" d="M25.6,38.045l-1.823-1.527L20.87,39.957l6.047,5.069L32.7,38.134,26.68,33.08l-2.134,2.549,4.3,3.557L26.665,41.78,24.19,39.72Z" transform="translate(10.071 15.947)" fill="#24873d" fill-rule="evenodd"/>
      <path id="Path_6" data-name="Path 6" d="M32.107,37.03,26.83,32.6l2.194-2.609,8.448.652Z" transform="translate(12.945 14.457)" fill="#24873d" fill-rule="evenodd"/>
      <path id="Path_7" data-name="Path 7" d="M31.014,27.44l2.935,2.46-.978,1.171L30.94,29.352l-.771.919L29.28,29.5Z" transform="translate(14.126 13.228)" fill="#24873d" fill-rule="evenodd"/>
      <path id="Path_8" data-name="Path 8" d="M41.973,29.778l-1.942,2.3L37.9,34.624,41.35,37.5l3.691-4.4,3.542,2.994c3.468-5.069,4.61-10.034.267-14.422l-3.691,4.4-3.29-2.757L35.54,30.756l3.705.222,4-4.773,2.712,2.268-2.327,2.653Z" transform="translate(17.145 10.445)" fill="#24873d" fill-rule="evenodd"/>
      <rect id="Rectangle_4" data-name="Rectangle 4" width="2.623" height="2.846" transform="matrix(0.643, -0.766, 0.766, 0.643, 63.346, 21.944)" fill="#24873d"/>
      <path id="Path_9" data-name="Path 9" d="M41.344,18.584l-1.556,1.808,3.024,2.535L45.776,19.4l-.963-.8.815-.949-3.483-2.92L39.18,18.258l.934.786,2.253-2.683,1.541,1.393L42.441,19.5Z" transform="translate(18.9 7.099)" fill="#24873d" fill-rule="evenodd"/>
      <rect id="Rectangle_5" data-name="Rectangle 5" width="4.224" height="6.536" transform="matrix(0.643, -0.766, 0.766, 0.643, 56.547, 15.261)" fill="#24873d"/>
      <rect id="Rectangle_6" data-name="Rectangle 6" width="3.365" height="6.7" transform="translate(50.883 7.452) rotate(-49.998)" fill="#24873d"/>
      <rect id="Rectangle_7" data-name="Rectangle 7" width="7.856" height="9.071" transform="matrix(0.643, -0.766, 0.766, 0.643, 39.147, 10.834)" fill="#24873d"/>
      <rect id="Rectangle_8" data-name="Rectangle 8" width="4.491" height="6.788" transform="translate(40.867 3.44) rotate(-49.998)" fill="#24873d"/>
      <path id="Path_10" data-name="Path 10" d="M24.523,11.354l4.7-5.321a11.21,11.21,0,0,1,3.542-2.668C29.221,1.29,25.1-.5,21.9.386L16.83,6.359l1.734,1.467,5.128-6.018L26.3,3.973l-2.95,3.454L22.21,6.552l-1.423,1.7Z" transform="translate(8.123 0.07)" fill="#24873d" fill-rule="evenodd"/>
      <rect id="Rectangle_9" data-name="Rectangle 9" width="2.49" height="1.942" transform="matrix(0.643, -0.766, 0.766, 0.643, 8.602, 22.636)" fill="#24873d"/>
      <rect id="Rectangle_10" data-name="Rectangle 10" width="2.283" height="1.186" transform="matrix(0.643, -0.766, 0.766, 0.643, 4.258, 18.727)" fill="#24873d"/>
      <rect id="Rectangle_11" data-name="Rectangle 11" width="3.379" height="1.082" transform="matrix(0.643, -0.766, 0.766, 0.643, 10.843, 10.937)" fill="#24873d"/>
      <rect id="Rectangle_12" data-name="Rectangle 12" width="4.476" height="2.223" transform="translate(17.718 6.304) rotate(-49.998)" fill="#24873d"/>
      <rect id="Rectangle_13" data-name="Rectangle 13" width="3.172" height="2.12" transform="translate(0 34.366) rotate(-49.998)" fill="#24873d"/>
      <rect id="Rectangle_14" data-name="Rectangle 14" width="2.49" height="1.942" transform="matrix(0.643, -0.766, 0.766, 0.643, 14.069, 14.712)" fill="#24873d"/>
      <rect id="Rectangle_15" data-name="Rectangle 15" width="6.788" height="2.208" transform="translate(21.097 16.585) rotate(-50.006)" fill="#24873d"/>
      <rect id="Rectangle_16" data-name="Rectangle 16" width="6.788" height="1.112" transform="translate(18.401 14.277) rotate(-49.998)" fill="#24873d"/>
      <path id="Path_11" data-name="Path 11" d="M1.411,29.41a8.276,8.276,0,0,0,1.2,6.492l2.727-3.216Z" transform="translate(0.598 14.177)" fill="#24873d" fill-rule="evenodd"/>
      <path id="Path_12" data-name="Path 12" d="M47.6,23.137a6.756,6.756,0,0,0-.978-5.677L44.25,20.276Z" transform="translate(21.345 8.415)" fill="#24873d" fill-rule="evenodd"/>
    </g>
    <path id="Path_13" data-name="Path 13" d="M142.181,10.425h22.485q12.228,0,16.971,10.687a17.514,17.514,0,0,1,1.141,6.388,16.719,16.719,0,0,1-5.558,12.45,18.137,18.137,0,0,1-8.389,4.091,26.579,26.579,0,0,1-3.869.252l-14.689.163V50.8h-8.167V36.467h22.2c2.905,0,5.025-.548,6.359-1.63a9.205,9.205,0,0,0,3.706-5.336,8.907,8.907,0,0,0,.222-1.719v-.845a9.143,9.143,0,0,0-2.727-6.166,9.31,9.31,0,0,0-6.285-2.5H142.136V10.425Zm-32.089,0h27.243v8.3H109.825a3.69,3.69,0,0,0-3.957,3.172v.593a3.69,3.69,0,0,0,2.1,3.142,3.757,3.757,0,0,0,1.349.252h13.829c3.557,0,5.958.371,7.233,1.1a12,12,0,0,1,6.507,6.418,14.7,14.7,0,0,1,1.008,5.188c0,4.046-1.882,7.441-5.662,10.212a14.311,14.311,0,0,1-3.869,1.66,28.215,28.215,0,0,1-5.41.371H97.27l-.03-8.315h27.6a4.224,4.224,0,0,0,4.432-3.424l.059-.756a4.053,4.053,0,0,0-2.386-3.705,4.644,4.644,0,0,0-2.164-.445h-15.5q-6.092,0-10.153-5.321a11.546,11.546,0,0,1-1.764-5.973v-1.1q0-6.225,6.062-9.842A12.8,12.8,0,0,1,110.091,10.425ZM52.36,30.627a20.725,20.725,0,0,1,1.986-8.8A19.993,19.993,0,0,1,65.6,11.7q3.024-1.29,9.086-1.29h18.35v7.856H73.7q-8.738,0-12.184,7.515a11.851,11.851,0,0,0-1.1,4.847,11.644,11.644,0,0,0,1.1,4.847q3.446,7.515,12.184,7.515H81.8v7.826H74.667q-6.07,0-9.086-1.29a19.892,19.892,0,0,1-11.25-10.094A20.93,20.93,0,0,1,52.36,30.627Zm19.52-3.9H93.031v24.1H85.072V34.5H71.9V26.729Z" transform="translate(25.25 5.018)" fill="#24873d"/>
    <path id="Path_14" data-name="Path 14" d="M177.915,41.395c.044-.015.1-.015.178-.03a1.707,1.707,0,0,1,.3-.015,1.265,1.265,0,0,1,.445.074.567.567,0,0,1,.3.222.671.671,0,0,1,.1.4.607.607,0,0,1-.1.371.711.711,0,0,1-.3.252,1.083,1.083,0,0,1-.445.089H177.9V41.395Zm-.489,3.335h.474V43.114h.459a.794.794,0,0,1,.356.074.525.525,0,0,1,.237.237,1.653,1.653,0,0,1,.148.415c.059.237.1.43.148.578a2.448,2.448,0,0,0,.1.311h.5a2.349,2.349,0,0,1-.133-.371c-.044-.178-.1-.385-.163-.652a1.467,1.467,0,0,0-.193-.489.659.659,0,0,0-.341-.267v-.015a1.036,1.036,0,0,0,.356-.193.919.919,0,0,0,.252-.326.968.968,0,0,0,.089-.43,1.132,1.132,0,0,0-.074-.4.757.757,0,0,0-.222-.311.841.841,0,0,0-.267-.178,2.032,2.032,0,0,0-.356-.1,3.987,3.987,0,0,0-.459-.03,2.3,2.3,0,0,0-.326.015,2.018,2.018,0,0,0-.311.03q-.156.022-.267.044V44.73Zm-3.691-2.149h-1.453V41.409h1.527v-.4h-2.016v3.72h2.09v-.4h-1.616V42.981h1.453v-.4ZM165.7,41.409a1.032,1.032,0,0,1,.237-.03,2.193,2.193,0,0,1,.326-.015,1.785,1.785,0,0,1,.845.178,1.182,1.182,0,0,1,.5.5,1.741,1.741,0,0,1,.163.771,1.891,1.891,0,0,1-.178.86,1.163,1.163,0,0,1-.534.534,2.119,2.119,0,0,1-.874.193h-.267c-.089,0-.163-.015-.222-.015V41.409Zm-.474,3.305a3.158,3.158,0,0,0,.4.03c.148.015.3.015.474.015a3.192,3.192,0,0,0,.667-.059,2.646,2.646,0,0,0,.548-.178,1.239,1.239,0,0,0,.415-.3,1.728,1.728,0,0,0,.4-.623,2.378,2.378,0,0,0,.133-.83,2.127,2.127,0,0,0-.133-.786,1.658,1.658,0,0,0-.385-.563,1.576,1.576,0,0,0-.623-.341,3.151,3.151,0,0,0-.889-.119c-.193,0-.371.015-.548.015a4.139,4.139,0,0,0-.474.059v3.676Zm-4.239-3.705v3.72h.474v-3.72Zm-4.639,3.72,1.334-3.72h-.519l-.637,1.838c-.089.237-.163.474-.237.711s-.133.459-.193.667h-.015a5.55,5.55,0,0,0-.178-.667c-.074-.237-.148-.474-.222-.726l-.578-1.838h-.519l1.215,3.72h.548Zm-6.566-3.394a.968.968,0,0,1,.43.089,1.086,1.086,0,0,1,.341.237,1.4,1.4,0,0,1,.237.341,1.94,1.94,0,0,1,.133.415,2.262,2.262,0,0,1,.044.445,2.5,2.5,0,0,1-.074.593,1.5,1.5,0,0,1-.237.489,1.16,1.16,0,0,1-.371.341,1.1,1.1,0,0,1-.5.119,1.217,1.217,0,0,1-.415-.074,1.268,1.268,0,0,1-.326-.222,1.316,1.316,0,0,1-.237-.326,1.974,1.974,0,0,1-.148-.415,2.3,2.3,0,0,1-.044-.459,2.454,2.454,0,0,1,.044-.474,1.479,1.479,0,0,1,.148-.43,1.4,1.4,0,0,1,.237-.341.8.8,0,0,1,.326-.222A.752.752,0,0,1,149.783,41.335Zm.015-.385a1.822,1.822,0,0,0-.7.133,1.585,1.585,0,0,0-.548.4,1.524,1.524,0,0,0-.356.623,2.266,2.266,0,0,0-.133.8,2.545,2.545,0,0,0,.119.771,1.558,1.558,0,0,0,.341.593,1.541,1.541,0,0,0,.534.385,1.7,1.7,0,0,0,.682.133,2.225,2.225,0,0,0,.548-.074,1.777,1.777,0,0,0,.474-.237,1.373,1.373,0,0,0,.371-.4,2.069,2.069,0,0,0,.252-.548,2.56,2.56,0,0,0,.089-.7,2.379,2.379,0,0,0-.119-.756,1.679,1.679,0,0,0-.341-.593,1.541,1.541,0,0,0-.534-.385A1.4,1.4,0,0,0,149.8,40.95Zm-6.922.445c.044-.015.1-.015.178-.03a1.707,1.707,0,0,1,.3-.015,1.265,1.265,0,0,1,.445.074.567.567,0,0,1,.3.222.671.671,0,0,1,.1.4.607.607,0,0,1-.1.371.711.711,0,0,1-.3.252,1.083,1.083,0,0,1-.445.089h-.489V41.395ZM142.4,44.73h.474V43.114h.459a.794.794,0,0,1,.356.074.525.525,0,0,1,.237.237,1.652,1.652,0,0,1,.148.415c.059.237.1.43.148.578a2.449,2.449,0,0,0,.1.311h.5a2.348,2.348,0,0,1-.133-.371c-.044-.178-.1-.385-.163-.652a1.467,1.467,0,0,0-.193-.489.659.659,0,0,0-.341-.267v-.015a1.035,1.035,0,0,0,.356-.193.919.919,0,0,0,.252-.326.967.967,0,0,0,.089-.43,1.131,1.131,0,0,0-.074-.4.757.757,0,0,0-.222-.311.841.841,0,0,0-.267-.178,2.033,2.033,0,0,0-.356-.1,3.987,3.987,0,0,0-.459-.03,2.3,2.3,0,0,0-.326.015,2.017,2.017,0,0,0-.311.03q-.156.022-.267.044V44.73Zm-5.366-3.335c.044-.015.1-.015.178-.03a1.529,1.529,0,0,1,.282-.015,1.421,1.421,0,0,1,.459.074.728.728,0,0,1,.311.237.69.69,0,0,1,.1.415.774.774,0,0,1-.119.43.654.654,0,0,1-.326.267,1.278,1.278,0,0,1-.5.089,1.122,1.122,0,0,1-.222-.015.744.744,0,0,1-.178-.03V41.395Zm-.474,3.335h.474v-1.5c.059.015.119.015.178.03h.208a2.054,2.054,0,0,0,.445-.044,1.693,1.693,0,0,0,.385-.133.916.916,0,0,0,.3-.222,1,1,0,0,0,.208-.341,1.4,1.4,0,0,0,.074-.445,1.083,1.083,0,0,0-.089-.445.884.884,0,0,0-.237-.326.913.913,0,0,0-.43-.222,1.993,1.993,0,0,0-.623-.074c-.193,0-.371.015-.519.015s-.282.03-.4.044V44.73Zm-7.218-2.149h-1.453V41.409h1.527v-.4H127.4v3.72h2.09v-.4h-1.616V42.981h1.453v-.4Zm-5.529,1.645a1.586,1.586,0,0,1-.489.148,1.889,1.889,0,0,1-.3.015,1.586,1.586,0,0,1-.608-.1,1.374,1.374,0,0,1-.445-.3,1.263,1.263,0,0,1-.282-.474,1.971,1.971,0,0,1-.089-.623,1.773,1.773,0,0,1,.1-.652,1.269,1.269,0,0,1,.756-.771,1.51,1.51,0,0,1,.593-.1,2.012,2.012,0,0,1,.43.044,1.409,1.409,0,0,1,.326.1l.119-.385a1.076,1.076,0,0,0-.178-.074,1.3,1.3,0,0,0-.3-.059,3.158,3.158,0,0,0-.4-.03,1.9,1.9,0,0,0-.786.148,1.556,1.556,0,0,0-.608.4,1.728,1.728,0,0,0-.4.623,2.651,2.651,0,0,0-.148.8,2.293,2.293,0,0,0,.133.815,1.644,1.644,0,0,0,.385.593,1.458,1.458,0,0,0,.578.356,2.26,2.26,0,0,0,.726.119,3.409,3.409,0,0,0,.415-.03c.133-.015.237-.044.341-.059a2.043,2.043,0,0,0,.237-.089Zm-6.729-3.216v3.72h.474v-3.72Zm-4.639,3.72,1.334-3.72h-.519l-.623,1.838c-.089.237-.163.474-.237.711s-.133.459-.193.667h-.015a5.548,5.548,0,0,0-.178-.667c-.074-.222-.148-.474-.222-.726l-.578-1.838H110.7l1.215,3.72h.534Zm-6.833-3.335c.044-.015.1-.015.178-.03a1.707,1.707,0,0,1,.3-.015,1.265,1.265,0,0,1,.445.074.567.567,0,0,1,.3.222.671.671,0,0,1,.1.4.607.607,0,0,1-.1.371.711.711,0,0,1-.3.252,1.083,1.083,0,0,1-.445.089h-.474Zm-.489,3.335h.474V43.114h.459a.794.794,0,0,1,.356.074.525.525,0,0,1,.237.237,1.652,1.652,0,0,1,.148.415q.089.356.133.578a2.45,2.45,0,0,0,.1.311h.5a2.35,2.35,0,0,1-.133-.371c-.044-.178-.1-.385-.163-.652a1.467,1.467,0,0,0-.193-.489.659.659,0,0,0-.341-.267v-.015a1.035,1.035,0,0,0,.356-.193.919.919,0,0,0,.252-.326.967.967,0,0,0,.089-.43,1.131,1.131,0,0,0-.074-.4.757.757,0,0,0-.222-.311.841.841,0,0,0-.267-.178,2.032,2.032,0,0,0-.356-.1,3.986,3.986,0,0,0-.459-.03,2.294,2.294,0,0,0-.326.015,2.018,2.018,0,0,0-.311.03q-.156.022-.267.044V44.73Zm-3.691-2.149H99.982V41.409h1.527v-.4H99.493v3.72h2.09v-.4h-1.6V42.981h1.453Zm-7.752,1.971a1,1,0,0,0,.252.119c.1.03.207.059.341.089a2.879,2.879,0,0,0,.356.03,1.692,1.692,0,0,0,.578-.089,1.064,1.064,0,0,0,.4-.237.888.888,0,0,0,.237-.341.983.983,0,0,0,.074-.415.973.973,0,0,0-.1-.474,1.172,1.172,0,0,0-.311-.356,1.79,1.79,0,0,0-.534-.267,2.215,2.215,0,0,1-.415-.193.692.692,0,0,1-.237-.222.627.627,0,0,1-.074-.3.457.457,0,0,1,.044-.193,1.236,1.236,0,0,1,.119-.178.558.558,0,0,1,.222-.133,1.019,1.019,0,0,1,.326-.044,2.017,2.017,0,0,1,.311.03.9.9,0,0,1,.237.074c.074.03.119.059.163.074l.133-.385a1.446,1.446,0,0,0-.208-.089,1.337,1.337,0,0,0-.282-.059,2.433,2.433,0,0,0-.341-.03,1.693,1.693,0,0,0-.489.074,1.071,1.071,0,0,0-.385.208.745.745,0,0,0-.237.326.882.882,0,0,0-.089.4.92.92,0,0,0,.119.459.939.939,0,0,0,.341.341,2.411,2.411,0,0,0,.519.252,1.672,1.672,0,0,1,.4.208.667.667,0,0,1,.222.237.675.675,0,0,1,.074.3.564.564,0,0,1-.089.326.671.671,0,0,1-.267.222.9.9,0,0,1-.415.074,2.22,2.22,0,0,1-.326-.03.984.984,0,0,1-.3-.089,1.314,1.314,0,0,1-.252-.119Zm-8.834.178h2.075v-.4H85.338v-3.32h-.474v3.72Zm-5.588-1.541.371-1.082c.03-.119.074-.222.1-.341s.059-.222.089-.341h.015c.03.1.059.222.089.326s.059.222.1.356l.371,1.067H79.261Zm1.23.371.4,1.171h.519l-1.275-3.72h-.578L78.3,44.73h.5l.385-1.171Zm-7.352-.608h.4A1.493,1.493,0,0,1,73.91,43a.988.988,0,0,1,.311.133.594.594,0,0,1,.208.222.707.707,0,0,1,.074.326.773.773,0,0,1-.074.341.594.594,0,0,1-.208.222.719.719,0,0,1-.311.119.967.967,0,0,1-.356.03h-.237c-.074,0-.119-.015-.178-.015V42.951Zm0-1.571c.044-.015.089-.015.163-.03s.163-.015.267-.015a1.256,1.256,0,0,1,.43.059.565.565,0,0,1,.282.193.535.535,0,0,1,.1.356.557.557,0,0,1-.371.548,1.228,1.228,0,0,1-.43.089h-.43v-1.2Zm-.474,3.335c.074.015.178.015.311.03a3.894,3.894,0,0,0,.445.015,2.9,2.9,0,0,0,.771-.089,1.323,1.323,0,0,0,.519-.267.852.852,0,0,0,.222-.326,1.024,1.024,0,0,0,.015-.8A1.127,1.127,0,0,0,74.77,43a1.619,1.619,0,0,0-.252-.193.993.993,0,0,0-.267-.1v-.015a1.272,1.272,0,0,0,.341-.193,1.328,1.328,0,0,0,.222-.282.879.879,0,0,0,.074-.341.78.78,0,0,0-.089-.385.793.793,0,0,0-.222-.267.777.777,0,0,0-.267-.148,1.149,1.149,0,0,0-.341-.089,3.452,3.452,0,0,0-.43-.03,2.3,2.3,0,0,0-.326.015,1.824,1.824,0,0,0-.3.03c-.089.015-.178.03-.252.044Zm-5.232-3.379a.967.967,0,0,1,.43.089,1.086,1.086,0,0,1,.341.237,1.4,1.4,0,0,1,.237.341,1.94,1.94,0,0,1,.133.415,2.262,2.262,0,0,1,.044.445,2.5,2.5,0,0,1-.074.593,1.5,1.5,0,0,1-.237.489,1.16,1.16,0,0,1-.371.341,1.1,1.1,0,0,1-.5.119,1.217,1.217,0,0,1-.415-.074,1.268,1.268,0,0,1-.326-.222,1.316,1.316,0,0,1-.237-.326,1.973,1.973,0,0,1-.148-.415,2.3,2.3,0,0,1-.044-.459,2.453,2.453,0,0,1,.044-.474,1.479,1.479,0,0,1,.148-.43,1.4,1.4,0,0,1,.237-.341.8.8,0,0,1,.326-.222A.786.786,0,0,1,67.433,41.335Zm.03-.385a1.822,1.822,0,0,0-.7.133,1.585,1.585,0,0,0-.548.4,1.524,1.524,0,0,0-.356.623,2.266,2.266,0,0,0-.133.8,2.546,2.546,0,0,0,.119.771,1.558,1.558,0,0,0,.341.593,1.541,1.541,0,0,0,.534.385,1.7,1.7,0,0,0,.682.133,2.225,2.225,0,0,0,.548-.074,1.778,1.778,0,0,0,.474-.237,1.373,1.373,0,0,0,.371-.4,2.069,2.069,0,0,0,.252-.548,2.559,2.559,0,0,0,.089-.7,2.379,2.379,0,0,0-.119-.756,1.679,1.679,0,0,0-.341-.593,1.541,1.541,0,0,0-.534-.385A1.484,1.484,0,0,0,67.462,40.95Zm-6.8,3.78h2.075v-.4H61.148v-3.32h-.474v3.72Zm-3.646-1.956h-1.23v.385h.756V44.27a1.528,1.528,0,0,1-.237.074,2.772,2.772,0,0,1-.4.03,1.51,1.51,0,0,1-.593-.1,1.362,1.362,0,0,1-.459-.3,1.291,1.291,0,0,1-.3-.474,1.744,1.744,0,0,1-.1-.637,1.613,1.613,0,0,1,.1-.623,1.712,1.712,0,0,1,.3-.474,1.291,1.291,0,0,1,.474-.3,1.613,1.613,0,0,1,.623-.1,2.513,2.513,0,0,1,.341.015,1.189,1.189,0,0,1,.267.059c.074.03.148.044.222.074l.119-.385a.781.781,0,0,0-.222-.074,1.662,1.662,0,0,0-.311-.059,3.157,3.157,0,0,0-.4-.03,2.2,2.2,0,0,0-.845.148,1.744,1.744,0,0,0-1.038,1.008,2.543,2.543,0,0,0-.148.771,3.27,3.27,0,0,0,.059.548,2.247,2.247,0,0,0,.178.474,1.17,1.17,0,0,0,.282.371,1.487,1.487,0,0,0,.623.371,2.546,2.546,0,0,0,.771.119c.163,0,.326-.015.474-.03s.282-.044.385-.074a2.149,2.149,0,0,0,.282-.089V42.773Z" transform="translate(26.007 19.745)" fill="#24873d"/>
  </g>
</svg>
