<svg id="online-coach" xmlns="http://www.w3.org/2000/svg" width="48.615" height="48.615" viewBox="0 0 48.615 48.615">
  <path id="Path_236" data-name="Path 236" d="M96,342.5v2.706h16.764V342.5a2.527,2.527,0,0,0-1.632-2.355l-3.607-1.353a3.333,3.333,0,0,1-6.285,0l-3.607,1.353A2.526,2.526,0,0,0,96,342.5Zm0,0" transform="translate(-85.942 -303.297)" fill="#24873d"/>
  <path id="Path_237" data-name="Path 237" d="M160.838,417.676h13.411a.839.839,0,0,0,.838-.838V416H160v.838A.839.839,0,0,0,160.838,417.676Zm0,0" transform="translate(-143.236 -372.414)" fill="#24873d"/>
  <path id="Path_238" data-name="Path 238" d="M147.353,242.424a3.356,3.356,0,0,0,3.353-3.353v-3.431a4.919,4.919,0,0,1-2.616-1.353l-.007-.007A9.1,9.1,0,0,1,144,235.659v3.412a3.356,3.356,0,0,0,3.353,3.353Zm0,0" transform="translate(-128.912 -209.735)" fill="#24873d"/>
  <path id="Path_239" data-name="Path 239" d="M160,325.2v.293a1.676,1.676,0,0,0,3.353,0V325.2a4.935,4.935,0,0,1-3.353,0Zm0,0" transform="translate(-143.236 -291.127)" fill="#24873d"/>
  <path id="Path_240" data-name="Path 240" d="M72.308,131.353a2.518,2.518,0,0,1-2.515-2.515V128H48v28.5h3.353v-2.7a4.214,4.214,0,0,1,2.719-3.925l3.986-1.494v-.71a5.027,5.027,0,0,1-1.4-2.119,3.351,3.351,0,0,1-2.787-3.3V138.9a7.544,7.544,0,0,1,15.087,0v3.353a3.351,3.351,0,0,1-2.787,3.3,5.037,5.037,0,0,1-1.4,2.119v.71l3.986,1.494a4.214,4.214,0,0,1,2.719,3.925V156.5H86.557V131.354H85.191l-7.016,6.012v-6.013Zm0,0" transform="translate(-42.971 -114.589)" fill="#24873d"/>
  <path id="Path_241" data-name="Path 241" d="M224,253.109a1.662,1.662,0,0,0,0-2.887Zm0,0" transform="translate(-200.531 -224.006)" fill="#24873d"/>
  <path id="Path_242" data-name="Path 242" d="M120.838,253.116V250.23a1.661,1.661,0,0,0,0,2.886Zm0,0" transform="translate(-107.427 -224.013)" fill="#24873d"/>
  <path id="Path_243" data-name="Path 243" d="M125.818,180.613l.994-.663.977.977a3.23,3.23,0,0,0,2.269.94,3.316,3.316,0,0,1,1.676.466v-.466a5.867,5.867,0,1,0-11.735,0v.466a3.316,3.316,0,0,1,1.676-.466,7.44,7.44,0,0,0,4.141-1.254Zm0,0" transform="translate(-107.427 -157.56)" fill="#24873d"/>
  <path id="Path_244" data-name="Path 244" d="M432,160h1.676v25.146H432Zm0,0" transform="translate(-386.738 -143.236)" fill="#24873d"/>
  <path id="Path_245" data-name="Path 245" d="M33.528,416.838a2.518,2.518,0,0,1-2.515,2.515H17.6a2.518,2.518,0,0,1-2.515-2.515V416H0v2.515a2.518,2.518,0,0,0,2.515,2.515H46.1a2.518,2.518,0,0,0,2.515-2.515V416H33.528Zm-28.5,2.515H3.353v-1.676H5.029Zm3.353,0H6.706v-1.676H8.382Zm3.353,0H10.058v-1.676h1.676Zm0,0" transform="translate(0 -372.414)" fill="#24873d"/>
  <path id="Path_246" data-name="Path 246" d="M17.676,99.353a1.678,1.678,0,0,1,1.676-1.676H41.146V96H18.515A2.518,2.518,0,0,0,16,98.515v29.337h1.676Zm0,0" transform="translate(-14.324 -85.942)" fill="#24873d"/>
  <path id="Path_247" data-name="Path 247" d="M291.278,0h-18.44A.839.839,0,0,0,272,.838V14.249a.839.839,0,0,0,.838.838h7.544v4.045l4.719-4.045h6.178a.839.839,0,0,0,.838-.838V.838A.839.839,0,0,0,291.278,0Zm-9.22,6.706a2.508,2.508,0,0,1,.838,4.875v1.831H281.22V11.58a2.511,2.511,0,0,1-1.676-2.36h1.676a.838.838,0,1,0,.838-.838,2.508,2.508,0,0,1-.838-4.875V1.676H282.9V3.507a2.511,2.511,0,0,1,1.676,2.36H282.9a.838.838,0,1,0-.838.838Zm0,0" transform="translate(-243.501)" fill="#24873d"/>
</svg>
