<svg xmlns="http://www.w3.org/2000/svg" width="66" height="63.938" viewBox="0 0 66 63.938">
  <g id="patent" transform="translate(0 -8)">
    <path id="Path_193" data-name="Path 193" d="M310.188,244.375A6.188,6.188,0,1,0,304,238.188,6.194,6.194,0,0,0,310.188,244.375Z" transform="translate(-264.813 -195.125)" fill="#24873d"/>
    <path id="Path_194" data-name="Path 194" d="M61.875,8H4.125A4.125,4.125,0,0,0,0,12.125V49.25a4.137,4.137,0,0,0,4.125,4.125H35.063v16.5a2.062,2.062,0,0,0,3.3,1.65l7.012-5.259,7.012,5.259a2.062,2.062,0,0,0,3.3-1.65v-16.5h6.188A4.137,4.137,0,0,0,66,49.25V12.125A4.137,4.137,0,0,0,61.875,8ZM38.83,50.936a2.062,2.062,0,0,0-1.33-1.329l-2.22-.716.488-2.282a2.06,2.06,0,0,0-.486-1.815l-1.564-1.731,1.564-1.731a2.059,2.059,0,0,0,.486-1.815l-.488-2.282,2.22-.716a2.061,2.061,0,0,0,1.33-1.329l.717-2.223,2.281.49a2.058,2.058,0,0,0,1.817-.486l1.73-1.565,1.73,1.565a2.051,2.051,0,0,0,1.817.486l2.281-.49.717,2.223a2.062,2.062,0,0,0,1.33,1.329l2.22.716-.488,2.282a2.06,2.06,0,0,0,.486,1.815l1.564,1.731-1.564,1.731a2.059,2.059,0,0,0-.486,1.815l.488,2.282-2.22.716a2.061,2.061,0,0,0-1.33,1.329L51.2,53.158l-2.281-.492a2.059,2.059,0,0,0-1.818.486l-1.73,1.566-1.73-1.566a2.062,2.062,0,0,0-1.818-.486l-2.281.492ZM10.312,16.25h41.25a2.063,2.063,0,0,1,0,4.125H10.313a2.063,2.063,0,0,1,0-4.125Zm0,10.313H30.937a2.063,2.063,0,0,1,0,4.125H10.312a2.063,2.063,0,0,1,0-4.125ZM22.687,41H10.312a2.063,2.063,0,0,1,0-4.125H22.687a2.063,2.063,0,0,1,0,4.125Z" fill="#24873d"/>
  </g>
</svg>
