<svg xmlns="http://www.w3.org/2000/svg" width="58.001" height="49" viewBox="0 0 58.001 49">
  <path id="folder_1_" data-name="folder (1)" d="M54,22.5v-10H52v-4H25l-2-4H2.732A2.736,2.736,0,0,0,0,7.233V52.5c0,.734-.047,1,.565,1H45.325a2.539,2.539,0,0,0,2.45-1.813L58,23.5v-1Zm-4-12v2H7v2H5v-4ZM8,15.914V18.5H5.415ZM52,21.5H44v-3a1,1,0,0,0-2,0v3H37v-3a1,1,0,0,0-2,0v3H30v-3a1,1,0,0,0-2,0v3H23v-3a1,1,0,0,0-2,0v3H16v-3a1,1,0,0,0-2,0v3H11.732a2.537,2.537,0,0,0-2.45,1.813L4,37.793V20.5h6v-6H52Z" transform="translate(0 -4.5)" fill="#24873d"/>
</svg>
