<svg id="Group_252" data-name="Group 252" xmlns="http://www.w3.org/2000/svg" width="30.863" height="48.732" viewBox="0 0 30.863 48.732">
  <g id="Group_44" data-name="Group 44" transform="translate(0 0)">
    <path id="Path_71" data-name="Path 71" d="M234.437,240a2.437,2.437,0,1,0,2.437,2.437A2.437,2.437,0,0,0,234.437,240Zm0,3.249a.812.812,0,1,1,.812-.812A.812.812,0,0,1,234.437,243.249Z" transform="translate(-219.005 -218.071)" fill="#494949"/>
    <path id="Path_72" data-name="Path 72" d="M212.873,216A4.878,4.878,0,0,0,208,220.873c0,1.425,1.188,3.518,3.525,6.213.452.528.767.851.767.851a.812.812,0,0,0,1.148.014l.014-.014s.315-.325.762-.847a24.918,24.918,0,0,0,2.609-3.524,5.687,5.687,0,0,0,.92-2.694,4.8,4.8,0,0,0-.975-2.924A4.9,4.9,0,0,0,212.873,216Zm2.548,6.755a23.987,23.987,0,0,1-2.437,3.276l-.112.132-.118-.136c-1.96-2.261-3.131-4.188-3.131-5.153a3.249,3.249,0,0,1,5.848-1.949,3.193,3.193,0,0,1,.65,1.949A4.152,4.152,0,0,1,215.421,222.754Z" transform="translate(-197.441 -196.507)" fill="#494949"/>
    <path id="Path_73" data-name="Path 73" d="M130.8,24H108.061A4.066,4.066,0,0,0,104,28.061v40.61a4.066,4.066,0,0,0,4.061,4.061H130.8a4.066,4.066,0,0,0,4.061-4.061V28.061A4.066,4.066,0,0,0,130.8,24Zm0,47.107H108.061a2.437,2.437,0,0,1-2.437-2.437h0V68.65a4.022,4.022,0,0,0,2.437.834H130.8a4.016,4.016,0,0,0,2.437-.834v.021a2.437,2.437,0,0,1-2.437,2.437Zm0-3.249H108.061a2.437,2.437,0,0,1-2.437-2.437V28.061a2.437,2.437,0,0,1,2.437-2.437H130.8a2.437,2.437,0,0,1,2.437,2.437V65.422A2.437,2.437,0,0,1,130.8,67.859Z" transform="translate(-104 -24)" fill="#494949"/>
  </g>
  <path id="Path_74" data-name="Path 74" d="M232,56h1.624v1.624H232Z" transform="translate(-219.005 -52.751)" fill="#494949"/>
  <path id="Path_75" data-name="Path 75" d="M264,56h1.624v1.624H264Z" transform="translate(-247.756 -52.751)" fill="#494949"/>
  <path id="Path_76" data-name="Path 76" d="M151.554,48h-4.061a2.437,2.437,0,0,0-2.437,2.437.812.812,0,0,1-.812.812h-6.5a.812.812,0,0,1-.812-.812A2.437,2.437,0,0,0,134.5,48h-4.061A2.437,2.437,0,0,0,128,50.437v33.3a2.437,2.437,0,0,0,2.437,2.437h21.117a2.437,2.437,0,0,0,2.437-2.437v-33.3A2.437,2.437,0,0,0,151.554,48Zm.812,26.8H148.3V66.681h4.061Zm-4.873-9.746a.812.812,0,0,0-.812.812v9.746a.812.812,0,0,0,.812.812h4.873v1.624H142.62a.812.812,0,0,0-.812.812v5.685h-1.624V78.864a.812.812,0,0,0-.812-.812h-9.746V76.427h6.5a.812.812,0,1,0,0-1.624h-6.5V73.178h4.061a.812.812,0,0,0,.812-.812V66.681a.812.812,0,0,0-.812-.812h-4.061V64.244H141a.812.812,0,0,0,.812-.812v-7.31h1.624v7.31a.812.812,0,1,0,1.624,0v-7.31h1.624v6.5a.812.812,0,0,0,.812.812h4.873v1.624Zm-17.868,2.437h3.249v4.061h-3.249Zm0-11.371h10.559v6.5H129.624Zm22.742,0v5.685H148.3V56.122Zm-21.929-6.5H134.5a.812.812,0,0,1,.812.812,2.437,2.437,0,0,0,2.437,2.437h6.5a2.437,2.437,0,0,0,2.437-2.437.812.812,0,0,1,.812-.812h4.061a.812.812,0,0,1,.812.812V54.5H129.624V50.437A.812.812,0,0,1,130.437,49.624Zm-.812,34.112V79.676h8.934v4.873h-8.122A.812.812,0,0,1,129.624,83.737Zm22.742,0a.812.812,0,0,1-.812.812h-8.122V79.676h8.934Z" transform="translate(-125.563 -45.564)" fill="#494949"/>
  <path id="Path_77" data-name="Path 77" d="M232,432h4.873v1.624H232Z" transform="translate(-219.005 -390.578)" fill="#494949"/>
</svg>
