<svg xmlns="http://www.w3.org/2000/svg" width="43.337" height="43.341" viewBox="0 0 43.337 43.341">
  <g id="Group_246" data-name="Group 246" transform="translate(0.075 0.075)">
    <path id="Path_54" data-name="Path 54" d="M38.7,26.467a6.484,6.484,0,0,0,6.476-6.476V18.551a7.18,7.18,0,0,0-9.05-6.949A7.854,7.854,0,0,0,27.906,7.9V4.159A2.159,2.159,0,0,0,25.747,2H4.159A2.159,2.159,0,0,0,2,4.159V43.018a2.159,2.159,0,0,0,2.159,2.159H25.747a2.159,2.159,0,0,0,2.159-2.159V26.467h1.439V42.3a.72.72,0,0,0,.72.72h9.457a2.878,2.878,0,1,0,0-1.439H30.784V26.467h3.6v2.981a2.878,2.878,0,1,0,1.439,0V26.467Zm3.6,14.392A1.439,1.439,0,1,1,40.859,42.3,1.439,1.439,0,0,1,42.3,40.859Zm-5.757-8.635A1.439,1.439,0,1,1,35.1,30.784,1.439,1.439,0,0,1,36.541,32.223ZM35.135,12.785a.72.72,0,0,0,.884.36,5.878,5.878,0,0,1,1.962-.35,5.763,5.763,0,0,1,5.757,5.757V19.99A5.044,5.044,0,0,1,38.7,25.027H19.99a5.044,5.044,0,0,1-5.037-5.037V18.551a5.044,5.044,0,0,1,5.037-5.037,4.893,4.893,0,0,1,2.211.522.72.72,0,0,0,1.007-.419,6.363,6.363,0,0,1,1.6-2.564A6.531,6.531,0,0,1,29.345,9.2a6.443,6.443,0,0,1,5.79,3.589ZM23.588,10.259a7.824,7.824,0,0,0-1.467,2.18,6.321,6.321,0,0,0-2.131-.365,6.484,6.484,0,0,0-6.476,6.476V19.99a6.484,6.484,0,0,0,6.476,6.476h1.439v9.355H19.168a2.878,2.878,0,1,0,0,1.439h2.981a.72.72,0,0,0,.72-.72V26.467h.72V40.859H6.318V7.757H23.588ZM17.831,36.541A1.439,1.439,0,1,1,16.392,35.1,1.439,1.439,0,0,1,17.831,36.541Zm4.318-33.1a.72.72,0,0,1-.72.72H8.476a.72.72,0,0,1-.72-.72Zm4.318,39.578a.72.72,0,0,1-.72.72H4.159a.72.72,0,0,1-.72-.72V4.159a.72.72,0,0,1,.72-.72H6.318A2.159,2.159,0,0,0,8.476,5.6H21.429a2.159,2.159,0,0,0,2.159-2.159h2.159a.72.72,0,0,1,.72.72V8.317a7.76,7.76,0,0,0-1.439.735V7.037a.72.72,0,0,0-.72-.72H5.6a.72.72,0,0,0-.72.72V41.578a.72.72,0,0,0,.72.72h18.71a.72.72,0,0,0,.72-.72V26.467h1.439Z" transform="translate(-2 -2)" fill="#494949" stroke="#494949" stroke-width="0.15"/>
    <path id="Path_55" data-name="Path 55" d="M10.72,39.916h2.159v1.439a.72.72,0,0,0,.444.665.71.71,0,0,0,.276.055.719.719,0,0,0,.509-.211l4.318-4.318a.72.72,0,0,0,0-1.018l-4.318-4.318a.72.72,0,0,0-1.228.509v1.439H10.72a.72.72,0,0,0-.72.72V39.2A.72.72,0,0,0,10.72,39.916Zm.72-4.318H13.6a.72.72,0,0,0,.72-.72v-.422l2.581,2.58-2.581,2.581V39.2a.72.72,0,0,0-.72-.72H11.439Z" transform="translate(-4.243 -10.412)" fill="#494949" stroke="#494949" stroke-width="0.15"/>
    <path id="Path_56" data-name="Path 56" d="M33.055,21.313a.72.72,0,0,0,.665.444h1.439v3.6a.72.72,0,0,0,.72.72H40.2a.72.72,0,0,0,.72-.72v-3.6h1.439a.72.72,0,0,0,.509-1.228l-4.318-4.318a.72.72,0,0,0-1.018,0l-4.318,4.318A.72.72,0,0,0,33.055,21.313Zm4.983-3.576,2.581,2.581H40.2a.72.72,0,0,0-.72.72v3.6H36.6v-3.6a.72.72,0,0,0-.72-.72h-.422Z" transform="translate(-10.692 -5.925)" fill="#494949" stroke="#494949" stroke-width="0.15"/>
    <path id="Path_57" data-name="Path 57" d="M12.159,16.318A2.159,2.159,0,1,0,10,14.159,2.159,2.159,0,0,0,12.159,16.318Zm0-2.878a.72.72,0,1,1-.72.72A.72.72,0,0,1,12.159,13.439Z" transform="translate(-4.243 -4.804)" fill="#494949" stroke="#494949" stroke-width="0.15"/>
    <path id="Path_58" data-name="Path 58" d="M12.159,26.318A2.159,2.159,0,1,0,10,24.159a2.159,2.159,0,0,0,2.159,2.159Zm0-2.878a.72.72,0,1,1-.72.72A.72.72,0,0,1,12.159,23.439Z" transform="translate(-4.243 -7.608)" fill="#494949" stroke="#494949" stroke-width="0.15"/>
    <path id="Path_59" data-name="Path 59" d="M12.159,53.318A2.159,2.159,0,1,0,10,51.159,2.159,2.159,0,0,0,12.159,53.318Zm0-2.878a.72.72,0,1,1-.72.72A.72.72,0,0,1,12.159,50.439Z" transform="translate(-4.243 -15.179)" fill="#494949" stroke="#494949" stroke-width="0.15"/>
    <rect id="Rectangle_65" data-name="Rectangle 65" width="1.439" height="1.439" transform="translate(22.308 2.159)" fill="#494949" stroke="#494949" stroke-width="0.15"/>
  </g>
</svg>
