<svg id="shield" xmlns="http://www.w3.org/2000/svg" width="52.543" height="61.702" viewBox="0 0 52.543 61.702">
  <path id="Path_183" data-name="Path 183" d="M132.2,158.457a11.756,11.756,0,1,0,11.756,11.756A11.77,11.77,0,0,0,132.2,158.457Zm6.98,9.542-8.422,8.422a1.81,1.81,0,0,1-2.56,0l-3.219-3.219a1.81,1.81,0,0,1,2.56-2.56l1.939,1.939,7.143-7.142a1.81,1.81,0,0,1,2.56,2.56Zm0,0" transform="translate(-105.926 -139.361)" fill="#24873d"/>
  <path id="Path_184" data-name="Path 184" d="M52.482,16.74l0-.048c-.027-.593-.045-1.22-.056-1.917a6.539,6.539,0,0,0-6.157-6.406C39.173,7.973,33.685,5.659,29,1.089l-.04-.038a3.949,3.949,0,0,0-5.367,0l-.04.038C18.86,5.659,13.372,7.973,6.278,8.369A6.539,6.539,0,0,0,.12,14.775c-.01.693-.029,1.32-.056,1.917l0,.111c-.138,7.234-.309,16.237,2.7,24.409a31.072,31.072,0,0,0,7.454,11.611,38.995,38.995,0,0,0,14.588,8.628,4.518,4.518,0,0,0,.6.163,4.416,4.416,0,0,0,1.736,0,4.532,4.532,0,0,0,.6-.164,39.021,39.021,0,0,0,14.572-8.633A31.115,31.115,0,0,0,49.767,41.2C52.79,33.008,52.619,23.988,52.482,16.74ZM26.271,46.228A15.377,15.377,0,1,1,41.648,30.851,15.394,15.394,0,0,1,26.271,46.228Zm0,0" transform="translate(0 0.001)" fill="#24873d"/>
</svg>
