<svg xmlns="http://www.w3.org/2000/svg" width="56.849" height="47.712" viewBox="0 0 56.849 47.712">
  <g id="work" transform="translate(0.001)">
    <path id="Path_167" data-name="Path 167" d="M158.333,1.015A1.015,1.015,0,0,0,157.318,0h-20.3A1.015,1.015,0,0,0,136,1.015V7.106h22.333Zm0,0" transform="translate(-118.743)" fill="#24873d"/>
    <path id="Path_168" data-name="Path 168" d="M10.335,92.3H24.364V89.258a3.046,3.046,0,0,1,3.045-3.045h2.03a3.046,3.046,0,0,1,3.045,3.045V92.3H46.515a1,1,0,0,0,.885-.517l9.449-17V72H0v2.783l9.441,17a1.007,1.007,0,0,0,.894.524Zm0,0" transform="translate(-0.001 -62.864)" fill="#24873d"/>
    <path id="Path_169" data-name="Path 169" d="M209.015,200h2.03a1.015,1.015,0,0,1,1.015,1.015v8.121a1.015,1.015,0,0,1-1.015,1.015h-2.03A1.015,1.015,0,0,1,208,209.136v-8.121A1.015,1.015,0,0,1,209.015,200Zm0,0" transform="translate(-181.607 -174.621)" fill="#24873d"/>
    <path id="Path_170" data-name="Path 170" d="M56.848,126.855l-7.671,13.806a3.032,3.032,0,0,1-2.664,1.566H32.484v3.045a3.046,3.046,0,0,1-3.045,3.045h-2.03a3.046,3.046,0,0,1-3.045-3.045v-3.045H10.334a3.039,3.039,0,0,1-2.668-1.574L0,126.856V158.47H56.848Zm0,0" transform="translate(0 -110.758)" fill="#24873d"/>
  </g>
</svg>
